<svg width="562" height="651" viewBox="0 0 562 651" fill="none" xmlns="http://www.w3.org/2000/svg">
<path opacity="0.41" d="M512.292 458.533C512.292 535.537 449.863 597.96 372.859 597.96C340.793 597.96 311.253 587.132 287.696 568.934C269.56 554.929 254.972 536.553 245.509 515.377C237.748 498.017 233.432 478.783 233.432 458.533C233.432 441.132 236.623 424.471 242.449 409.107C189.454 406.102 141.881 382.847 107.345 346.938C88.6051 327.464 73.708 304.264 63.8681 278.553C59.6823 267.629 56.4161 256.245 54.1585 244.504C51.7362 231.961 50.4736 219.012 50.4736 205.762C50.4736 189.156 52.4636 173.024 56.2102 157.571C68.8429 105.489 101.499 61.23 145.566 33.4119C177 13.5605 214.239 2.07367 254.162 2.07367C339.146 2.07367 411.978 54.1211 442.507 128.085C452.395 152.026 457.85 178.253 457.85 205.762C457.85 214.977 457.239 224.042 456.052 232.935C452.093 262.647 441.718 290.342 426.375 314.571C425.599 315.813 424.796 317.041 423.98 318.263C422.107 321.097 420.151 323.889 418.134 326.62C438.465 333.592 456.67 345.134 471.533 360.024C496.716 385.248 512.292 420.072 512.292 458.533Z" fill="url(#paint0_linear_10_4921)"/>
<path d="M291.305 80.6423C246.957 56.3512 195.726 40.857 145.565 33.4119C177 13.5605 214.239 2.07367 254.162 2.07367C339.146 2.07367 411.978 54.1211 442.507 128.085C402.845 124.627 350.022 112.811 291.305 80.6423Z" fill="url(#paint1_linear_10_4921)"/>
<path d="M456.052 232.935C452.093 262.647 441.718 290.342 426.375 314.571C392.408 312.718 348.781 305.548 296.28 287.309C213.416 258.53 147.302 304.765 107.345 346.938C88.6052 327.464 73.708 304.264 63.8681 278.553C107.674 247.99 178.674 218.813 276.662 241.924C272.936 240.668 149.848 199.895 54.1585 244.504C51.7362 231.961 50.4736 219.012 50.4736 205.762C50.4736 189.156 52.4636 173.024 56.2102 157.571C113.088 143.669 224.697 133.383 341.397 197.651C385.91 222.169 424.055 231.878 456.052 232.935Z" fill="url(#paint2_linear_10_4921)"/>
<path d="M471.533 360.024C426.944 371.964 384.174 397.408 364.666 449.99C343.209 507.822 317.888 546.42 287.696 568.934C269.56 554.929 254.972 536.553 245.509 515.377C264.276 501.996 286.584 475.16 309.256 422.248C335.29 361.486 381.951 332.22 423.98 318.263C422.107 321.097 420.151 323.889 418.134 326.62C438.465 333.592 456.67 345.134 471.533 360.024Z" fill="url(#paint3_linear_10_4921)"/>
<path d="M184.864 198.481C281.55 160.642 364.917 111.559 414.225 79.7865C412.968 78.1924 411.686 76.6195 410.384 75.0643C315.33 128.145 194.63 170.24 110.248 196.176C87.5695 195.119 67.6977 193.852 50.8977 192.59C50.6194 196.945 50.4736 201.336 50.4736 205.762C50.4736 206.549 50.4928 207.332 50.5017 208.118C55.4373 208.611 60.3593 209.089 65.2542 209.536C60.0879 211.014 55.213 212.39 50.6381 213.667C50.9665 222.274 51.822 230.743 53.1894 239.044C82.7523 232.611 111.971 224.293 140.371 214.71C272.41 220.946 384.372 211.202 457.772 200.239C457.671 196.451 457.459 192.69 457.154 188.956C351.702 197.829 259.257 199.649 184.864 198.481Z" fill="white"/>
<path d="M453.314 344.645C451.394 343.286 449.435 341.978 447.444 340.715C367.246 421.182 289.58 469.215 238.876 497.202C240.677 503.45 242.892 509.523 245.509 515.377C245.941 516.344 246.396 517.299 246.849 518.254C294.991 488.246 373.792 434.685 453.314 344.645Z" fill="white"/>
<path d="M472.009 360.512C471.849 360.351 471.693 360.185 471.533 360.024C470.094 358.582 468.614 357.182 467.114 355.805C401.015 461.323 328.956 528.684 284.867 566.679C285.802 567.441 286.741 568.197 287.696 568.934C292.841 572.909 298.271 576.531 303.951 579.767C344.975 539.829 412.442 468.962 472.009 360.512Z" fill="white"/>
<path d="M384.817 110.745C384.817 110.745 387.308 118.039 386.278 123.357C386.066 124.441 385.4 125.567 384.419 126.685C380.603 131.063 372.129 135.283 368.437 135.962C363.806 136.827 330.354 125.025 330.354 125.025C330.354 125.025 326.065 114.629 326.065 108.961C326.065 103.286 333.27 96.6507 333.27 96.6507C333.27 96.6507 331.63 86.9069 335.322 78.4599C335.589 77.8423 335.885 77.2384 336.214 76.6415C340.969 67.968 353.458 63.2882 353.849 63.151C353.691 63.4392 348.785 72.1538 348.236 77.4374C348.236 77.4374 353.856 70.7745 362.172 69.3198C370.496 67.8651 376.075 69.3198 376.843 70.006C377.612 70.6922 366.893 82.0967 368.266 85.2737C369.638 88.4508 383.444 96.5958 386.189 100.37C388.934 104.144 384.817 110.745 384.817 110.745Z" fill="url(#paint4_linear_10_4921)"/>
<path d="M384.419 126.685C380.603 131.063 372.129 135.283 368.437 135.962C363.806 136.827 330.354 125.025 330.354 125.025C330.354 125.025 326.065 114.629 326.065 108.961C326.065 103.286 333.27 96.6507 333.27 96.6507C333.27 96.6507 331.63 86.9068 335.322 78.4598C335.274 78.9745 334.601 86.1726 337.202 90.3652C339.906 94.7088 351.338 92.1904 356.601 94.1392C361.864 96.0812 373.755 99.3954 376.274 102.373C378.785 105.345 378.01 108.961 378.01 108.961C378.01 108.961 380.501 110.944 380.274 114.094C380.096 116.564 380.089 122.561 384.419 126.685Z" fill="url(#paint5_linear_10_4921)"/>
<path d="M372.266 144.204C367.868 146.036 364.32 143.943 364.32 143.943C364.32 143.943 364.32 143.943 364.313 143.95C364.313 143.95 364.313 143.95 364.313 143.957C364.073 144.279 358.35 152.047 356.086 153.982C355.674 154.332 355.118 154.675 354.487 154.997C351.591 156.479 347.076 157.577 347.076 157.577L345.772 164.295L342.65 180.366C342.65 180.366 334.299 180.139 330.182 178.884C326.065 177.621 322.291 174.08 322.291 174.08L328.041 159.588L330.82 152.589C330.82 152.589 325.722 144.801 325.55 142.399C325.544 142.317 325.55 142.193 325.564 142.049C325.914 138.014 333.03 111.335 334.299 107.801C335.617 104.144 341.278 97.7417 341.792 97.6251C342.307 97.5084 347.062 103.766 348.826 104.089C350.445 104.384 371.237 104.542 371.923 105.345C372.609 106.148 372.726 112.666 371.923 114.148C371.127 115.638 366.893 119.295 366.667 120.667C366.434 122.04 367.696 123.988 367.696 126.5C367.696 129.018 366.324 132.332 366.55 133.019C366.777 133.705 371.182 127.817 375.896 130.219C380.253 132.435 376.898 142.282 372.266 144.204Z" fill="url(#paint6_linear_10_4921)"/>
<path d="M349.471 149.144C345.574 145.089 340.866 140.807 339.672 140.512C333.901 139.085 325.564 142.049 325.564 142.049C325.551 142.193 325.544 142.317 325.551 142.399C325.722 144.801 330.82 152.589 330.82 152.589C330.82 152.589 336.904 152.115 339.017 152.692C341.13 153.261 347.076 157.577 347.076 157.577C347.076 157.577 351.591 156.479 354.487 154.997C355.118 154.675 355.674 154.332 356.086 153.982C358.35 152.047 364.073 144.279 364.313 143.957C364.313 143.95 364.313 143.95 364.313 143.95C363.929 144.114 352.255 151.777 349.471 149.144Z" fill="url(#paint7_linear_10_4921)"/>
<path d="M356.029 119.412C358.425 120.145 356.472 125.673 353.799 124.958C351.264 124.28 353.227 118.554 356.029 119.412Z" fill="url(#paint8_linear_10_4921)"/>
<path d="M354.23 111.269C353.504 111.385 353.148 113.048 353.371 113.542C353.595 114.036 356.544 113.934 358.148 114.718C359.752 115.502 361.862 117.009 361.91 116.918C361.958 116.827 361.01 114.596 359.2 113.201C357.389 111.807 354.739 111.188 354.23 111.269Z" fill="url(#paint9_linear_10_4921)"/>
<path d="M338.837 115.9C336.437 115.179 334.99 120.86 337.609 121.751C340.094 122.596 341.643 116.744 338.837 115.9Z" fill="url(#paint10_linear_10_4921)"/>
<path d="M344.856 110.13C345.395 110.629 344.767 112.209 344.307 112.496C343.847 112.783 341.451 111.06 339.682 110.82C337.913 110.581 335.321 110.662 335.332 110.56C335.342 110.457 337.37 109.129 339.65 108.975C341.93 108.821 344.477 109.779 344.856 110.13Z" fill="url(#paint11_linear_10_4921)"/>
<path d="M348.238 115.837C348.238 115.837 343.177 120.741 341.89 122.173C340.781 123.407 341.89 126.359 341.89 126.359C341.89 126.359 341.762 123.1 343.477 123.014C345.193 122.928 347.566 126.559 347.566 126.559C347.566 126.559 347.137 124.572 345.564 123.043C344.517 122.024 344.078 122.071 344.163 121.413C344.249 120.755 348.238 115.837 348.238 115.837Z" fill="url(#paint12_linear_10_4921)"/>
<path d="M343.277 130.505C346.331 130.899 350.139 130.448 350.31 131.134C350.482 131.82 347.394 136.023 342.133 135.537C337.725 135.13 336.687 130.448 337.416 129.762C338.145 129.075 340.508 130.147 343.277 130.505Z" fill="white"/>
<path d="M402.918 307.77C401.889 311.373 397.943 316.691 392.111 318.406C386.278 320.122 376.843 318.235 374.785 314.461C374.627 314.179 374.442 313.733 374.229 313.157C371.56 306.069 364.663 278.779 364.663 278.779L393.483 267.8C393.483 267.8 395.061 273.289 396.935 280.213C399.879 291.11 403.55 305.568 402.918 307.77Z" fill="url(#paint13_linear_10_4921)"/>
<path d="M396.935 280.213C392.324 282.272 384.405 285.771 380.274 287.411C374.798 289.58 373.481 301.938 374.229 313.157C371.56 306.069 364.663 278.779 364.663 278.779L393.483 267.8C393.483 267.8 395.061 273.289 396.935 280.213Z" fill="url(#paint14_linear_10_4921)"/>
<path d="M397.429 270.373C397.429 270.373 388.508 280.151 377.186 283.239C376.294 283.479 375.409 283.699 374.531 283.891C364.279 286.149 355.4 285.126 355.4 285.126C355.4 285.126 349.567 262.482 348.709 258.708C348.023 255.689 347.776 243.886 351.303 232.434C352.188 229.572 353.307 226.732 354.713 224.055C361.747 210.675 377.92 205.412 377.92 205.412C381.42 210.448 397.429 270.373 397.429 270.373Z" fill="url(#paint15_linear_10_4921)"/>
<path d="M374.531 283.891C364.279 286.149 355.4 285.126 355.4 285.126C355.4 285.126 349.567 262.482 348.709 258.708C348.023 255.689 347.776 243.886 351.303 232.434L366.488 229.696C366.488 229.696 368.087 262.839 374.531 283.891Z" fill="url(#paint16_linear_10_4921)"/>
<path d="M343.446 632.454C342.307 646.631 332.241 649.149 332.241 649.149C332.241 649.149 318.058 646.288 316.685 640.455C316.068 637.827 315.718 633.758 315.436 628.831C315.1 622.841 314.874 615.588 314.4 608.15C313.542 594.597 309.254 575.384 309.254 575.384C309.254 575.384 308.698 567.404 313.302 562.154C318.195 556.576 324.919 556.74 324.919 556.74C324.919 556.74 330.134 558.696 334.375 560.556C337.092 561.749 339.405 562.909 339.672 563.492C340.359 564.975 341.388 571.384 341.848 577.1C342.307 582.815 341.621 595.627 341.621 600.087C341.621 604.547 344.592 618.271 343.446 632.454Z" fill="url(#paint17_linear_10_4921)"/>
<path d="M315.436 628.831C315.1 622.841 314.874 615.588 314.4 608.15C313.542 594.597 309.254 575.384 309.254 575.384C309.254 575.384 308.698 567.404 313.302 562.154C318.195 556.576 324.919 556.74 324.919 556.74C324.919 556.74 330.134 558.696 334.375 560.556C335.329 572.68 338.074 624.824 315.436 628.831Z" fill="url(#paint18_linear_10_4921)"/>
<path d="M336.213 561.39C336.213 561.39 339.603 560.933 340.518 561.39C341.433 561.848 346.194 567.95 345.965 577.1C345.736 586.249 344.592 594.369 344.707 597.571C344.821 600.773 347.909 620.901 347.337 631.652C346.765 642.402 339.86 649.578 334.156 650.693C328.452 651.808 320.904 645.059 320.904 645.059C320.904 645.059 325.98 647.949 333.099 645.633C337.356 644.248 341.448 635.768 341.333 631.995C340.904 617.928 335.364 608.517 335.586 606.52C335.844 604.204 338.188 607.6 339.217 606.874C340.247 606.148 339.961 595.455 339.789 584.133C339.618 572.811 336.213 561.39 336.213 561.39Z" fill="url(#paint19_linear_10_4921)"/>
<path d="M332.014 557.317C332.014 557.317 329.496 568.865 322.463 575.041C318.236 578.746 313.089 579.982 309.645 580.379C307.353 580.64 305.823 580.53 305.823 580.53C305.823 580.53 299.99 565.091 291.756 552.054C283.522 539.016 237.547 461.134 235.488 450.841C233.43 440.548 232.174 397.318 235.372 370.33C237.32 353.903 240.628 332.068 242.913 317.48C244.388 308.093 245.438 301.711 245.438 301.711C245.438 301.711 262.25 289.586 278.718 291.302C295.187 293.017 314.057 305.712 314.057 305.712C314.057 305.712 306.509 326.641 299.647 350.314C292.785 373.988 278.718 443.293 278.718 443.293C278.718 443.293 290.383 457.531 297.931 477.431C305.48 497.33 316.115 532.669 324.466 548.163C327.836 554.421 332.014 557.317 332.014 557.317Z" fill="url(#paint20_linear_10_4921)"/>
<path d="M332.014 557.317C332.014 557.317 329.496 568.865 322.462 575.041C318.236 578.746 313.089 579.982 309.644 580.38C317.398 538.996 276.652 451.692 276.529 448.439C276.399 445.008 264.994 452.213 264.651 448.439C264.308 444.665 270.827 419.276 272.199 398.347C273.572 377.419 280.879 321.981 275.17 319.045C266.318 314.495 251.751 315.964 242.913 317.48C244.388 308.093 245.438 301.711 245.438 301.711C245.438 301.711 262.249 289.586 278.718 291.302C295.186 293.017 314.057 305.712 314.057 305.712C314.057 305.712 306.509 326.641 299.647 350.314C292.785 373.988 278.718 443.293 278.718 443.293C278.718 443.293 290.383 457.531 297.931 477.431C305.479 497.33 316.115 532.669 324.466 548.163C327.835 554.421 332.014 557.317 332.014 557.317Z" fill="url(#paint21_linear_10_4921)"/>
<path d="M260.991 99.5773C260.991 99.5773 266.39 118.619 256.417 131.077C246.444 143.534 231.714 143.085 231.714 143.085C231.714 143.085 221.51 131.344 233.658 113.007C245.781 94.7087 258.281 95.5745 260.991 99.5773Z" fill="url(#paint22_linear_10_4921)"/>
<path d="M285.84 17.0116C285.449 19.4544 284.935 21.6434 282.622 22.803C280.303 23.9627 278.292 22.1169 278.292 22.1169C278.292 22.1169 278.978 27.0025 275.843 30.0492C272.714 33.0959 266.106 37.4669 266.106 37.4669L253.027 94.7157C253.006 94.8254 252.993 94.8803 252.993 94.8803L259.717 103.163L268.994 114.581C268.994 114.581 270.367 129.416 263.738 139.023C257.103 148.629 251.133 148.89 251.133 148.89C251.133 148.89 224.282 106.429 223.823 103.458C223.617 102.106 229.003 87.7165 234.966 72.3184C234.973 72.2978 234.973 72.2841 234.973 72.2773C234.98 72.2704 234.98 72.2635 234.98 72.2635C242.144 53.7502 250.111 33.8164 250.159 33.3498C250.241 32.492 252.986 5.81987 254.228 4.70138C255.47 3.58975 257.103 4.30342 257.103 4.30342C257.103 4.30342 259.278 2.12817 260.417 1.95662C261.563 1.78507 263.162 2.24485 263.162 2.24485C263.162 2.24485 265.454 0.817566 266.593 0.817566C267.739 0.817566 269.852 1.90176 269.852 1.90176C269.852 1.90176 271.684 1.16066 273.455 1.50375C275.232 1.84685 283.919 5.90221 284.722 6.87662C285.525 7.851 286.225 14.5688 285.84 17.0116Z" fill="url(#paint23_linear_10_4921)"/>
<path d="M285.84 17.0117C285.449 19.4545 284.935 21.6435 282.622 22.8031C280.303 23.9628 278.292 22.1169 278.292 22.1169C278.292 22.1169 278.979 27.0026 275.843 30.0493C272.714 33.096 266.106 37.467 266.106 37.467L253.027 94.7157C253.672 91.3671 264.129 37.316 263.965 36.8975C263.793 36.4652 260.705 35.6966 260.705 35.6966C260.705 35.6966 263.704 35.3535 264.994 35.0104C266.284 34.6674 271.938 30.8933 274.258 27.4624C276.577 24.0314 276.831 17.0392 276.893 16.7647C276.961 16.4833 278.354 16.3118 278.869 16.7647C279.383 17.2107 278.848 19.7427 279.02 20.4289C279.191 21.1151 279.404 21.6709 281.847 21.4582C284.29 21.2455 285.463 18.9262 285.84 17.0117Z" fill="url(#paint24_linear_10_4921)"/>
<path d="M263.738 139.023C257.103 148.629 251.133 148.89 251.133 148.89C251.133 148.89 224.282 106.429 223.823 103.458C223.617 102.106 229.003 87.7166 234.966 72.3185C234.658 73.581 229.175 95.8685 230.341 100.37C231.542 105.002 244.017 121.765 248.868 120.153C256.259 117.689 258.914 107.472 259.717 103.163L268.994 114.581C268.994 114.581 270.367 129.416 263.738 139.023Z" fill="url(#paint25_linear_10_4921)"/>
<path d="M356.216 323.896C355.228 325.268 347.68 327.67 330.869 323.896C314.057 320.122 304.107 309.829 286.266 305.026C280.18 303.386 273.174 303.489 266.47 304.346C266.099 304.388 265.722 304.436 265.351 304.49C252.87 306.233 241.705 310.399 239.949 310.399C237.204 310.399 237.664 302.624 239.949 294.39C242.234 286.155 260.191 247.043 263.965 235.377C267.739 223.712 269.455 193.52 268.769 188.03C268.082 182.541 231.714 143.085 231.714 143.085C231.714 143.085 240.422 142.234 248.595 135.86C250.763 134.178 252.897 132.099 254.818 129.54C260.418 122.081 261.474 112.536 261.454 106.244C261.44 102.257 260.994 99.5739 260.994 99.5739C260.994 99.5739 278.375 125.587 289.128 137.939C299.874 150.29 316.342 166.532 334.416 173.161C354.933 180.695 375.848 202.825 377.907 205.398C377.914 205.405 377.921 205.412 377.921 205.412C379.931 207.93 348.023 261.11 346.308 269.001C344.592 276.892 357.198 322.523 356.216 323.896Z" fill="url(#paint26_linear_10_4921)"/>
<path d="M377.907 205.398C377.419 204.938 361.685 190.027 350.315 183.996C338.773 177.868 320.459 172.248 313.597 167.218C306.735 162.182 295.07 151.203 283.864 138.995C275.136 129.478 265.351 113.044 261.453 106.244C261.44 102.257 260.994 99.5738 260.994 99.5738C260.994 99.5738 278.375 125.587 289.127 137.939C299.873 150.29 316.342 166.532 334.416 173.161C354.933 180.695 375.848 202.825 377.907 205.398Z" fill="url(#paint27_linear_10_4921)"/>
<path d="M291.186 179.11C291.186 179.11 283.638 180.482 281.58 183.001C279.521 185.512 274.485 214.106 274.944 223.252C275.404 232.406 279.974 265.343 277.915 268.315C275.857 271.286 270.141 240.181 267.623 244.071C265.111 247.955 248.862 281.352 246.467 294.616C244.388 306.089 260.843 304.998 265.351 304.49C252.87 306.233 241.705 310.398 239.949 310.398C237.204 310.398 237.664 302.624 239.949 294.39C242.234 286.155 260.191 247.043 263.965 235.377C267.739 223.712 269.455 193.52 268.769 188.03C268.082 182.541 231.714 143.085 231.714 143.085C231.714 143.085 240.422 142.234 248.595 135.859C254.413 145.185 270.326 171.205 274.485 174.993C279.521 179.57 291.186 179.11 291.186 179.11Z" fill="url(#paint28_linear_10_4921)"/>
<path d="M285.065 216.679C284.894 220.624 288.325 231.432 293.471 241.039C298.618 250.645 317.145 282.381 323.664 281.352C330.182 280.323 336.53 259.223 335.672 256.992C334.814 254.762 327.952 268.315 323.149 267.457C318.346 266.599 300.848 246.7 295.873 238.637C290.898 230.574 285.065 216.679 285.065 216.679Z" fill="url(#paint29_linear_10_4921)"/>
<path d="M418.357 257.336C418.357 257.336 406.15 304.621 402.987 310.398C400.592 314.783 396.029 318.468 390.745 319.223C389.078 319.463 387.335 319.408 385.564 318.99C378.215 317.247 378.044 300.565 378.901 295.591L400.489 257.857L404.119 251.503C404.119 251.503 409.437 248.072 413.554 250.474C417.671 252.875 418.357 257.336 418.357 257.336Z" fill="url(#paint30_linear_10_4921)"/>
<path d="M418.357 257.336C418.357 257.336 406.15 304.621 402.987 310.398C400.592 314.783 396.029 318.468 390.745 319.223C404.208 308.56 408.284 271.718 406.575 265.995C405.677 262.976 402.911 259.998 400.489 257.857L404.119 251.503C404.119 251.503 409.437 248.072 413.554 250.474C417.671 252.875 418.357 257.336 418.357 257.336Z" fill="url(#paint31_linear_10_4921)"/>
<path d="M423.115 184.325C423.115 184.325 406.079 189.259 404.514 190.4C402.95 191.542 398.641 208.662 398.641 212.087C398.641 215.513 415.281 224.573 415.281 224.573L414.08 230.402C414.08 230.402 391.779 218.223 391.779 214.106C391.779 209.988 397.783 185.286 399.664 183.913C401.545 182.541 423.801 176.136 423.801 176.136L423.115 184.325Z" fill="url(#paint32_linear_10_4921)"/>
<path d="M421.902 181.58C421.902 181.58 404.867 186.514 403.302 187.656C401.737 188.797 397.428 205.917 397.428 209.343C397.428 212.768 414.068 221.829 414.068 221.829L412.868 227.658C412.868 227.658 390.566 215.478 390.566 211.361C390.566 207.244 396.571 182.541 398.452 181.169C400.333 179.796 422.589 173.392 422.589 173.392L421.902 181.58Z" fill="url(#paint33_linear_10_4921)"/>
<path d="M495.21 180.366C495.21 180.366 458.156 228.056 455.871 230.574C453.579 233.092 427.449 232.976 427.449 232.976L418.879 228.57L415.441 226.8C415.441 226.8 403.261 206.558 403.947 197.809C404.633 189.06 437.57 142.056 437.57 142.056C437.57 142.056 457.127 135.482 475.997 147.086C482.756 151.244 487.148 156.877 489.995 162.333C494.84 171.617 495.21 180.366 495.21 180.366Z" fill="url(#paint34_linear_10_4921)"/>
<path d="M495.21 180.366C495.21 180.366 458.156 228.056 455.871 230.574C453.579 233.092 427.449 232.976 427.449 232.976L418.879 228.57L424.073 220.542C424.073 220.542 437.57 218.909 443.52 216.679C448.076 214.97 476.82 179.028 489.995 162.333C494.84 171.617 495.21 180.366 495.21 180.366Z" fill="url(#paint35_linear_10_4921)"/>
<path d="M427.449 232.976L405.491 270.373L393.654 263.34L415.441 226.8L427.449 232.976Z" fill="url(#paint36_linear_10_4921)"/>
<path d="M376.5 254.66C367.616 269.585 412.01 291.302 420.416 278.264C428.822 265.227 385.383 239.735 376.5 254.66Z" fill="url(#paint37_linear_10_4921)"/>
<path d="M383.032 257.526C377.097 267.496 408.384 283.541 414 274.831C419.616 266.121 388.967 247.555 383.032 257.526Z" fill="url(#paint38_linear_10_4921)"/>
<path d="M518.588 162.614C518.693 161.443 517.855 158.61 516.94 158.524C516.94 158.524 515.137 160.203 514.124 162.556C504.134 164.626 478.675 172.22 478.675 172.22C478.675 172.22 477.191 172.777 475.925 173.821L472.681 173.563L471.994 176.48C471.994 176.48 472.109 179.796 475.311 179.51C475.527 179.491 475.714 179.445 475.884 179.382C480.082 178.446 506.056 172.676 505.951 173.307C505.837 173.993 482.964 204.471 481.334 205.072C479.704 205.672 451.971 216.137 451.971 216.137C451.971 216.137 451.542 216.236 450.952 216.474C450.842 216.169 450.724 215.973 450.665 215.993C450.494 216.05 444.947 218.394 445.033 220.539C445.119 222.683 447.406 223.484 447.406 223.484C447.406 223.484 485.365 210.304 487.081 209.501C488.796 208.698 519.389 163.529 518.588 162.614Z" fill="url(#paint39_linear_10_4921)"/>
<path d="M477.026 168.131C477.026 168.131 516.139 157.609 516.94 158.524C517.74 159.439 487.148 204.609 485.432 205.412C483.717 206.214 445.033 220.539 445.033 220.539C445.033 220.539 445.176 216.564 446.376 214.62C447.577 212.676 450.322 212.047 450.322 212.047C450.322 212.047 478.056 201.583 479.685 200.982C481.315 200.382 504.188 169.904 504.302 169.217C504.417 168.531 471.994 176.48 471.994 176.48C471.994 176.48 471.823 173.22 472.966 171.219C474.11 169.217 477.026 168.131 477.026 168.131Z" fill="url(#paint40_linear_10_4921)"/>
<path d="M436.198 240.75C436.143 241.039 435.855 244.181 435.457 245.382C435.052 246.583 432.424 247.9 432.081 248.189C431.738 248.47 431.683 250.014 431.223 251.043C430.764 252.072 428.081 252.587 427.449 252.875C426.818 253.163 426.193 256.533 425.274 257.452C424.361 258.365 415.201 260.348 411.935 259.401C411.935 259.401 410.521 252.663 407.721 251.16C404.208 249.273 401.154 250.755 401.154 250.755L399.878 252.903C399.878 252.903 398.643 251.674 397.641 250.062C396.928 248.902 396.331 247.544 396.399 246.302C396.571 243.324 398.801 241.951 398.801 241.951C398.801 241.951 398.616 241.141 398.485 240.05C398.348 238.815 398.293 237.223 398.684 236.064C399.432 233.888 402.705 232.976 402.705 232.976C402.705 232.976 402.595 232.29 402.506 231.37V231.363C402.39 230.073 402.328 228.317 402.705 227.315C403.343 225.599 406.047 224.913 406.047 224.913C406.047 224.913 405.978 224.097 406.047 223.026C406.129 221.729 406.411 220.062 407.262 219.026C408.805 217.139 421.274 213.474 426.763 214.709C431.957 215.869 438.257 233.834 438.6 236.146C438.943 238.465 436.253 240.469 436.198 240.75Z" fill="url(#paint41_linear_10_4921)"/>
<path d="M426.749 228.783C426.454 228.385 421.726 221.99 419.901 221.825C418.014 221.654 406.047 224.913 406.047 224.913C406.047 224.913 405.978 224.097 406.047 223.026C409.663 222.045 418.22 219.883 420.203 220.926C422.653 222.216 426.516 228.399 426.749 228.783Z" fill="url(#paint42_linear_10_4921)"/>
<path d="M422.221 234.63C421.768 234.074 418.323 229.792 416.642 229.627C414.844 229.463 402.705 232.976 402.705 232.976C402.705 232.976 402.596 232.29 402.506 231.37V231.363C406.315 230.485 415.523 228.44 416.772 228.804C418.261 229.229 421.781 234.033 422.221 234.63Z" fill="url(#paint43_linear_10_4921)"/>
<path d="M417.095 241.937C416.916 241.725 414.7 239.014 413.328 238.582C411.894 238.122 398.801 241.951 398.801 241.951C398.801 241.951 398.616 241.141 398.485 240.05C402.609 239.186 412.346 237.182 413.252 237.518C414.378 237.937 416.937 241.704 417.095 241.937Z" fill="url(#paint44_linear_10_4921)"/>
<path d="M425.274 257.452C424.362 258.365 415.201 260.348 411.935 259.401C411.935 259.401 410.521 252.663 407.721 251.16C404.208 249.273 401.155 250.755 401.155 250.755L399.878 252.903C399.878 252.903 398.643 251.674 397.641 250.062C400.215 249.307 407.083 247.413 409.21 248.017C411.839 248.758 413.499 255.16 414.872 256.423C416.244 257.679 421.13 259.024 425.274 257.452Z" fill="url(#paint45_linear_10_4921)"/>
<path d="M457.641 144.522C457.641 144.522 425.448 192.662 422.589 196.779C419.73 200.896 418.068 212.848 416.383 213.419C414.698 213.991 410.866 202.784 410.552 198.666C410.237 194.549 443.265 144.01 443.832 143.685C445.033 142.999 446.662 142.399 451.008 142.57C455.354 142.742 457.641 144.522 457.641 144.522Z" fill="url(#paint46_linear_10_4921)"/>
<path d="M459.563 179.57C459.515 179.632 459.481 179.686 459.439 179.741C453.229 188.037 447.397 194.796 445.805 193.348C444.213 191.901 448.234 183.865 453.422 175.061C454.897 172.804 461.306 177.333 459.563 179.57Z" fill="url(#paint47_linear_10_4921)"/>
<path d="M477.198 154.064C477.198 154.064 471.811 162.388 465.478 171.397C465.457 171.425 465.43 171.452 465.409 171.486V171.493C464.229 173.12 457.237 168.893 458.328 166.999C458.328 166.992 458.335 166.978 458.342 166.971C464.188 157.639 469.821 149.432 469.821 149.432C469.821 149.432 472.395 149.72 474.453 150.86C476.512 152.006 477.198 154.064 477.198 154.064Z" fill="url(#paint48_linear_10_4921)"/>
<path d="M435.512 116.552C433.225 113.693 431.281 107.175 431.281 107.175C431.281 107.175 429.337 113.693 427.049 116.552C424.762 119.412 419.959 121.127 419.959 121.127C419.959 121.127 425.448 123.757 427.736 126.159C430.023 128.561 431.281 135.194 431.281 135.194C431.281 135.194 432.539 128.561 434.826 126.159C437.113 123.757 442.603 121.127 442.603 121.127C442.603 121.127 437.8 119.412 435.512 116.552Z" fill="url(#paint49_linear_10_4921)"/>
<path d="M467.199 117.788C468.963 119.993 470.463 125.022 470.463 125.022C470.463 125.022 471.962 119.993 473.727 117.788C475.491 115.583 479.196 114.259 479.196 114.259C479.196 114.259 474.962 112.23 473.197 110.378C471.433 108.525 470.463 103.408 470.463 103.408C470.463 103.408 469.492 108.525 467.728 110.378C465.963 112.23 461.729 114.259 461.729 114.259C461.729 114.259 465.434 115.583 467.199 117.788Z" fill="url(#paint50_linear_10_4921)"/>
<path d="M446.799 87.4431C448.153 89.1352 449.304 92.9933 449.304 92.9933C449.304 92.9933 450.454 89.1352 451.808 87.4431C453.162 85.751 456.005 84.7357 456.005 84.7357C456.005 84.7357 452.756 83.1789 451.402 81.7575C450.048 80.3362 449.304 76.4104 449.304 76.4104C449.304 76.4104 448.559 80.3362 447.206 81.7575C445.852 83.1789 442.603 84.7357 442.603 84.7357C442.603 84.7357 445.446 85.751 446.799 87.4431Z" fill="url(#paint51_linear_10_4921)"/>
<path d="M194.591 73.9516C196.878 76.8107 198.822 83.3295 198.822 83.3295C198.822 83.3295 200.766 76.8107 203.054 73.9516C205.341 71.0924 210.144 69.377 210.144 69.377C210.144 69.377 204.953 67.3041 202.512 64.4917C200.338 61.987 198.822 55.3101 198.822 55.3101C198.822 55.3101 197.119 62.0576 194.831 64.4593C192.544 66.8609 187.5 69.377 187.5 69.377C187.5 69.377 192.303 71.0924 194.591 73.9516Z" fill="url(#paint52_linear_10_4921)"/>
<path d="M162.904 72.7161C161.14 70.5106 159.64 65.4822 159.64 65.4822C159.64 65.4822 158.141 70.5106 156.376 72.7161C154.612 74.9216 150.907 76.2448 150.907 76.2448C150.907 76.2448 155.141 78.2739 156.906 80.1264C158.67 81.979 159.64 87.0957 159.64 87.0957C159.64 87.0957 160.611 81.979 162.375 80.1264C164.14 78.2739 168.374 76.2448 168.374 76.2448C168.374 76.2448 164.669 74.9216 162.904 72.7161Z" fill="url(#paint53_linear_10_4921)"/>
<path d="M183.304 103.061C181.95 101.369 180.799 97.5107 180.799 97.5107C180.799 97.5107 179.649 101.369 178.295 103.061C176.941 104.753 174.098 105.768 174.098 105.768C174.098 105.768 177.347 107.325 178.701 108.746C180.055 110.168 180.799 114.094 180.799 114.094C180.799 114.094 181.544 110.168 182.897 108.746C184.251 107.325 187.5 105.768 187.5 105.768C187.5 105.768 184.657 104.753 183.304 103.061Z" fill="url(#paint54_linear_10_4921)"/>
<path d="M344.531 348.256C340.29 357.032 332.831 364.875 320.459 365.067C307.902 365.259 297.424 347.768 290.329 329.749C283.432 312.258 279.734 294.273 280.42 291.515C281.806 285.929 292.785 278.779 301.191 280.323C309.597 281.867 347.454 311.545 349.293 325.838C349.801 329.749 348.778 339.472 344.531 348.256Z" fill="url(#paint55_linear_10_4921)"/>
<path d="M344.53 348.256C340.29 357.032 332.831 364.875 320.459 365.067C307.902 365.259 297.424 347.768 290.328 329.749C295.729 325.145 312.403 310.399 312.403 310.399C312.403 310.399 319.087 320.005 324.123 331.444C328.192 340.694 335.919 349.223 344.53 348.256Z" fill="url(#paint56_linear_10_4921)"/>
<path d="M325.496 413.67C325.496 413.67 323.869 412.654 321.132 411.618C317.941 410.411 313.24 409.175 307.881 409.498C299.544 410.006 291.605 417.053 291.31 417.32C291.797 415.838 293.526 409.965 292.785 403.151C291.927 395.26 278.801 299.852 280.42 291.515C282.033 283.184 312.403 310.399 312.403 310.399C312.403 310.399 320.747 322.18 322.12 334.875C323.492 347.569 321.09 388.569 320.919 393.544C320.747 398.519 325.496 413.67 325.496 413.67Z" fill="url(#paint57_linear_10_4921)"/>
<path d="M325.496 413.67C325.496 413.67 323.869 412.654 321.131 411.618C319.485 404.468 316.747 397.586 316.63 395.088C316.458 391.314 320.232 353.176 318.057 337.736C315.889 322.297 312.403 310.399 312.403 310.399C312.403 310.399 320.747 322.18 322.119 334.875C323.492 347.569 321.09 388.569 320.919 393.544C320.747 398.519 325.496 413.67 325.496 413.67Z" fill="url(#paint58_linear_10_4921)"/>
<path d="M307.881 409.498C299.544 410.006 291.605 417.053 291.31 417.321C291.303 417.327 291.303 417.327 291.303 417.327C291.303 417.327 291.303 417.334 291.303 417.341C291.33 417.396 291.413 417.622 291.543 417.966C292.916 418.995 298.35 422.446 309.254 422.247C322.065 422.021 325.496 413.67 325.496 413.67C325.496 413.67 317.831 408.901 307.881 409.498Z" fill="url(#paint59_linear_10_4921)"/>
<path d="M317.863 420.539L317.215 410.399C314.532 409.734 311.346 409.29 307.881 409.498C305.114 409.667 302.392 410.557 299.977 411.68C299.978 414.132 299.908 416.691 299.647 417.789C299.437 418.67 299.135 419.92 298.837 421.15C298.321 423.274 297.817 425.338 297.817 425.338C297.817 425.338 305.251 425.338 309.253 425.338C313.256 425.338 318.059 423.622 318.059 423.622L317.863 420.539Z" fill="url(#paint60_linear_10_4921)"/>
<path d="M331.095 451.301C331.198 452.289 326.998 458.663 321.55 465.958C315.038 474.665 306.742 484.677 301.884 488.348C292.957 495.1 281.806 498.531 274.944 494.585C271.829 492.795 270.765 489.974 270.758 486.928C270.745 483.27 272.261 479.277 273.572 476.347C275.973 470.967 287.467 452.556 290.04 447.238C292.469 442.222 295.502 425.15 296.278 421.856C296.319 421.657 296.36 421.513 296.388 421.417C296.902 419.791 303.593 416.36 308.828 416.531C314.997 416.737 320.061 420.045 320.836 421.506C321.605 422.968 325.722 438.949 327.211 442.833C327.383 443.293 327.568 443.732 327.76 444.151C329.18 447.286 330.896 449.379 331.095 451.301Z" fill="url(#paint61_linear_10_4921)"/>
<path d="M331.095 451.301C331.328 453.469 310.811 481.596 301.884 488.348C292.956 495.1 281.806 498.531 274.944 494.585C271.829 492.794 270.765 489.974 270.758 486.928C272.35 488.444 274.594 489.782 277.606 489.954C284.976 490.379 293.931 487.257 299.873 480.004C306.337 472.113 309.027 462.623 310.166 461.36C311.312 460.104 310.509 468.455 315.203 462.849C319.889 457.243 327.76 444.151 327.76 444.151C329.18 447.286 330.896 449.379 331.095 451.301Z" fill="url(#paint62_linear_10_4921)"/>
<path d="M331.095 451.301C331.198 452.289 326.998 458.663 321.55 465.958C321.337 460.674 320.329 448.824 315.772 435.758C311.298 422.94 301.376 421.616 296.278 421.856C296.319 421.657 296.36 421.513 296.388 421.417C296.902 419.791 303.593 416.36 308.828 416.531C314.997 416.737 320.061 420.045 320.837 421.506C321.605 422.968 325.722 438.949 327.211 442.833C327.383 443.293 327.568 443.732 327.76 444.151C329.181 447.286 330.896 449.379 331.095 451.301Z" fill="url(#paint63_linear_10_4921)"/>
<path d="M219.36 619.984H124.998C117.267 619.984 111 613.717 111 605.986V511.623C111 503.892 117.267 497.625 124.998 497.625H219.36C227.091 497.625 233.358 503.892 233.358 511.623V605.986C233.358 613.717 227.091 619.984 219.36 619.984Z" fill="url(#paint64_linear_10_4921)"/>
<path d="M219.566 565.852L211.236 535.705L200.319 538.813L208.648 568.96L219.566 565.852Z" fill="white"/>
<path d="M124.792 565.852L133.122 535.705L144.039 538.813L135.71 568.96L124.792 565.852Z" fill="white"/>
<path d="M151.274 574.002L150.417 575.271C150.046 575.82 149.483 576.184 148.838 576.308C148.193 576.438 147.535 576.301 146.986 575.93C146.444 575.56 146.073 574.997 145.95 574.352C145.826 573.7 145.956 573.041 146.327 572.499L147.192 571.23C147.953 570.104 149.49 569.809 150.623 570.571C151.748 571.34 152.043 572.877 151.274 574.002Z" fill="white"/>
<path d="M159.351 577.014L156.599 581.07C155.837 582.195 154.294 582.49 153.168 581.729C152.043 580.96 151.748 579.423 152.509 578.298L153.223 577.241L154.115 575.93L155.261 574.242C156.03 573.11 157.567 572.822 158.692 573.584C159.817 574.345 160.112 575.889 159.351 577.014Z" fill="white"/>
<path d="M166.275 581.715L165.156 583.362C165.149 583.375 165.136 583.389 165.129 583.403L164.271 584.672C164.264 584.686 164.25 584.7 164.244 584.713L163.53 585.77C163.159 586.312 162.597 586.683 161.945 586.806C161.787 586.834 161.636 586.847 161.478 586.847C160.991 586.847 160.511 586.703 160.099 586.422C159.55 586.051 159.179 585.496 159.056 584.844C158.932 584.199 159.07 583.54 159.44 582.991L162.192 578.943C162.562 578.394 163.118 578.023 163.77 577.9C163.928 577.872 164.086 577.858 164.237 577.858C164.731 577.858 165.204 578.003 165.623 578.284C166.165 578.654 166.535 579.21 166.659 579.862C166.782 580.507 166.645 581.166 166.275 581.715Z" fill="white"/>
<path d="M172.059 588.103L171.201 589.366C170.433 590.498 168.896 590.793 167.77 590.025C166.638 589.263 166.35 587.719 167.112 586.594L167.969 585.331C168.34 584.782 168.903 584.412 169.548 584.288C170.199 584.164 170.858 584.302 171.4 584.672C171.949 585.043 172.313 585.605 172.443 586.25C172.567 586.896 172.43 587.554 172.059 588.103Z" fill="white"/>
<path d="M143.49 570.572L144.35 569.305C146.176 566.613 149.853 565.909 152.546 567.734C153.533 568.404 154.25 569.323 154.676 570.35C156.521 569.434 158.795 569.507 160.619 570.743C161.971 571.661 162.821 573.045 163.102 574.536C163.109 574.534 163.116 574.532 163.123 574.531C164.67 574.233 166.242 574.557 167.546 575.443C168.85 576.327 169.732 577.667 170.029 579.215C170.131 579.75 170.155 580.287 170.111 580.815C170.484 580.82 170.854 580.859 171.216 580.935C171.243 580.602 171.365 580.273 171.591 579.994C172.186 579.256 173.266 579.142 174.003 579.737L186.19 589.577C186.864 589.412 187.499 589.076 188.013 588.557C188.708 587.853 189.061 586.961 189.111 586.057L176.661 576.79C175.901 576.224 175.744 575.15 176.31 574.39C176.875 573.629 177.949 573.472 178.71 574.037L193.413 584.981C194.166 584.766 194.869 584.346 195.431 583.73C196.185 582.901 196.559 581.868 196.57 580.841L182.287 569.67C181.54 569.086 181.409 568.008 181.992 567.262C182.576 566.515 183.655 566.383 184.4 566.968L199.264 578.593C199.999 578.388 200.686 577.984 201.236 577.385C201.806 576.765 202.146 576.015 202.273 575.236L191.252 563.921C191.161 563.827 191.085 563.725 191.02 563.618L188.103 562.902C188.102 562.902 188.101 562.901 188.1 562.901C184.351 561.979 181.105 559.703 178.961 556.493L176.768 553.208H172.067L171.519 554.99C171.024 556.598 170.208 558.051 169.092 559.31L167.556 561.043C166.471 562.266 164.758 562.757 163.19 562.298C160.991 561.652 159.712 559.406 160.279 557.185L160.708 555.502C160.723 555.445 160.731 555.385 160.733 555.325L160.934 548.26C160.994 546.125 162.304 544.208 164.27 543.373L167.785 541.882H147.027L139.876 567.78L143.473 570.602C143.479 570.592 143.484 570.582 143.49 570.572Z" fill="white"/>
<path d="M172.853 543.46C172.852 543.46 172.85 543.461 172.849 543.462L165.61 546.532C164.875 546.844 164.386 547.56 164.363 548.358L164.163 555.424C164.154 555.735 164.11 556.047 164.033 556.35L163.603 558.033C163.496 558.456 163.739 558.883 164.157 559.006C164.457 559.093 164.782 559 164.988 558.767L166.524 557.034C167.313 556.144 167.89 555.117 168.24 553.981L169.16 550.988C169.382 550.269 170.047 549.778 170.8 549.778H177.686C178.259 549.778 178.794 550.064 179.112 550.54L181.815 554.587C183.481 557.084 186.005 558.853 188.92 559.569C188.92 559.57 188.921 559.57 188.922 559.57L192.233 560.383C192.242 560.385 192.251 560.388 192.26 560.39L197.719 561.732C198.639 561.957 199.201 562.887 198.975 563.807C198.783 564.59 198.082 565.114 197.31 565.114C197.27 565.114 197.229 565.102 197.188 565.099L201.828 569.862L204.482 567.78L197.331 541.882H176.573L172.853 543.46Z" fill="white"/>
<path d="M175.81 585.606C176.07 586.963 175.853 588.337 175.199 589.533L178.645 590.684C179.406 590.936 180.247 590.709 180.782 590.11L181.035 589.825L175.81 585.606Z" fill="white"/>
<path d="M153.051 306.751H42.5073C34.7763 306.751 28.509 300.484 28.509 292.753V182.209C28.509 174.478 34.7763 168.211 42.5073 168.211H153.051C160.782 168.211 167.049 174.478 167.049 182.209V292.753C167.049 300.484 160.782 306.751 153.051 306.751Z" fill="url(#paint65_linear_10_4921)"/>
<path d="M97.7809 189.228L48.6978 234.983H62.0716V283.826H70.8754V279.414C70.8754 264.558 82.918 252.515 97.7809 252.515C112.637 252.515 124.686 264.558 124.686 279.414V283.826H133.497V234.983H146.864L97.7809 189.228ZM97.7809 245.447C92.1678 245.447 87.6253 240.898 87.6253 235.292C87.6253 229.686 92.1678 225.136 97.7809 225.136C103.387 225.136 107.936 229.686 107.936 235.292C107.936 240.898 103.387 245.447 97.7809 245.447Z" fill="white"/>
<path d="M110.677 263.559H84.8847C82.8881 263.559 81.2695 265.177 81.2695 267.174V280.211C81.2695 282.207 82.8881 283.826 84.8847 283.826H110.677C112.673 283.826 114.292 282.207 114.292 280.211V267.174C114.292 265.177 112.673 263.559 110.677 263.559Z" fill="white"/>
<path d="M507.221 482.94H396.677C388.946 482.94 382.679 476.673 382.679 468.942V358.398C382.679 350.667 388.946 344.4 396.677 344.4H507.221C514.952 344.4 521.219 350.667 521.219 358.398V468.942C521.219 476.673 514.952 482.94 507.221 482.94Z" fill="url(#paint66_linear_10_4921)"/>
<path d="M439.748 400.873V392.426H418.703V400.873H407.271V455.645H423.156V436.96H436.283V455.645H451.18V400.873H439.748ZM443.769 423.057H415.663V412.25H443.769V423.057Z" fill="white"/>
<path d="M451.18 368.951V455.645H467.059V436.96H480.186V455.645H496.071V368.951H451.18ZM487.679 413.279H459.572V402.465H487.679V413.279ZM487.679 392.426H459.572V381.618H487.679V392.426Z" fill="white"/>
<path opacity="0.4" d="M43.7937 419.416H100.911V476.533H43.7937V419.416Z" fill="url(#paint67_linear_10_4921)"/>
<g opacity="0.4">
<path opacity="0.4" d="M67.786 403.073H32.696V438.163H67.786V403.073Z" fill="url(#paint68_linear_10_4921)"/>
</g>
<g opacity="0.4">
<path opacity="0.4" d="M15.191 374.141H0.0366211V389.296H15.191V374.141Z" fill="url(#paint69_linear_10_4921)"/>
</g>
<path opacity="0.51" d="M524.299 86.459C512.855 86.459 503.583 95.7354 503.583 107.175C503.583 118.618 512.855 127.89 524.299 127.89C535.738 127.89 545.014 118.618 545.014 107.175C545.014 95.7354 535.738 86.459 524.299 86.459ZM524.299 121.103C516.605 121.103 510.37 114.868 510.37 107.175C510.37 99.4857 516.605 93.2461 524.299 93.2461C531.992 93.2461 538.227 99.4857 538.227 107.175C538.227 114.868 531.992 121.103 524.299 121.103Z" fill="url(#paint70_linear_10_4921)"/>
<path d="M524.299 90.1883V90.1884C524.299 91.8007 525.432 93.1984 527.014 93.511C533.408 94.7745 538.228 100.415 538.228 107.175C538.228 113.939 533.408 119.576 527.014 120.839C525.432 121.152 524.299 122.549 524.299 124.162C524.299 126.282 526.227 127.911 528.308 127.503C537.829 125.636 545.015 117.247 545.015 107.175C545.015 97.1075 537.829 88.715 528.308 86.8472C526.227 86.439 524.299 88.0678 524.299 90.1883Z" fill="url(#paint71_linear_10_4921)"/>
<path opacity="0.51" d="M542.592 235.522C551.083 235.522 557.966 228.638 557.966 220.147C557.966 211.656 551.083 204.772 542.592 204.772C534.101 204.772 527.217 211.656 527.217 220.147C527.217 228.638 534.101 235.522 542.592 235.522Z" fill="url(#paint72_linear_10_4921)"/>
<path opacity="0.51" d="M553.969 200.775C558.384 200.775 561.964 197.195 561.964 192.78C561.964 188.364 558.384 184.785 553.969 184.785C549.553 184.785 545.974 188.364 545.974 192.78C545.974 197.195 549.553 200.775 553.969 200.775Z" fill="url(#paint73_linear_10_4921)"/>
<path opacity="0.51" d="M526.294 198.622C532.748 198.622 537.979 193.391 537.979 186.937C537.979 180.484 532.748 175.253 526.294 175.253C519.841 175.253 514.61 180.484 514.61 186.937C514.61 193.391 519.841 198.622 526.294 198.622Z" fill="url(#paint74_linear_10_4921)"/>
<path opacity="0.51" d="M502.641 246.848C484.846 246.848 470.429 261.272 470.429 279.06C470.429 296.854 484.846 311.272 502.641 311.272C520.428 311.272 534.853 296.854 534.853 279.06C534.853 261.272 520.428 246.848 502.641 246.848ZM502.641 300.718C490.678 300.718 480.983 291.023 480.983 279.06C480.983 267.104 490.678 257.402 502.641 257.402C514.604 257.402 524.299 267.104 524.299 279.06C524.299 291.023 514.604 300.718 502.641 300.718Z" fill="url(#paint75_linear_10_4921)"/>
<path d="M529.055 279.058C526.547 279.058 524.374 280.821 523.888 283.281C521.924 293.222 513.159 300.717 502.641 300.717C493.49 300.717 485.669 295.042 482.499 287.022C481.519 284.56 480.983 281.87 480.983 279.058C480.983 268.546 488.478 259.776 498.419 257.811C500.879 257.325 502.641 255.152 502.641 252.645V252.644C502.641 249.347 499.643 246.815 496.407 247.449C481.597 250.352 470.429 263.403 470.429 279.058C470.429 289.233 475.137 298.298 482.499 304.201C488.016 308.623 495.014 311.27 502.641 311.27C518.296 311.27 531.347 300.102 534.25 285.292C534.885 282.056 532.352 279.058 529.055 279.058Z" fill="url(#paint76_linear_10_4921)"/>
<path opacity="0.51" d="M166.687 404.622C155.243 404.622 145.971 413.898 145.971 425.337C145.971 436.781 155.243 446.053 166.687 446.053C178.126 446.053 187.402 436.781 187.402 425.337C187.402 413.898 178.126 404.622 166.687 404.622ZM166.687 439.266C158.993 439.266 152.758 433.031 152.758 425.337C152.758 417.649 158.993 411.409 166.687 411.409C174.38 411.409 180.615 417.649 180.615 425.337C180.615 433.031 174.38 439.266 166.687 439.266Z" fill="url(#paint77_linear_10_4921)"/>
<path d="M166.687 408.351C166.687 409.964 167.82 411.361 169.401 411.674C175.795 412.937 180.615 418.577 180.615 425.338C180.615 432.102 175.795 437.739 169.402 439.002C167.82 439.315 166.687 440.712 166.687 442.325V442.325C166.687 444.445 168.615 446.074 170.695 445.666C180.217 443.799 187.402 435.41 187.402 425.338C187.402 415.27 180.217 406.878 170.696 405.01C168.615 404.602 166.687 406.231 166.687 408.351Z" fill="url(#paint78_linear_10_4921)"/>
<path opacity="0.51" d="M214.247 297.934C222.738 297.934 229.622 291.051 229.622 282.56C229.622 274.068 222.738 267.185 214.247 267.185C205.756 267.185 198.872 274.068 198.872 282.56C198.872 291.051 205.756 297.934 214.247 297.934Z" fill="url(#paint79_linear_10_4921)"/>
<path opacity="0.51" d="M225.624 263.188C230.04 263.188 233.619 259.608 233.619 255.193C233.619 250.777 230.04 247.198 225.624 247.198C221.209 247.198 217.629 250.777 217.629 255.193C217.629 259.608 221.209 263.188 225.624 263.188Z" fill="url(#paint80_linear_10_4921)"/>
<path opacity="0.51" d="M197.95 261.035C204.403 261.035 209.634 255.804 209.634 249.35C209.634 242.897 204.403 237.666 197.95 237.666C191.496 237.666 186.265 242.897 186.265 249.35C186.265 255.804 191.496 261.035 197.95 261.035Z" fill="url(#paint81_linear_10_4921)"/>
<path opacity="0.51" d="M76.0054 60.3877C58.2108 60.3877 43.7935 74.8122 43.7935 92.5996C43.7935 110.394 58.2108 124.812 76.0054 124.812C93.7928 124.812 108.217 110.394 108.217 92.5996C108.217 74.8122 93.7928 60.3877 76.0054 60.3877ZM76.0054 114.258C64.0422 114.258 54.3471 104.563 54.3471 92.5996C54.3471 80.6436 64.0422 70.9414 76.0054 70.9414C87.9686 70.9414 97.6636 80.6436 97.6636 92.5996C97.6636 104.563 87.9686 114.258 76.0054 114.258Z" fill="url(#paint82_linear_10_4921)"/>
<path d="M102.419 92.5979C99.9117 92.5979 97.7384 94.3603 97.2525 96.8202C95.2887 106.762 86.5237 114.256 76.0054 114.256C66.8541 114.256 59.0337 108.582 55.864 100.561C54.8837 98.1001 54.3471 95.4098 54.3471 92.5979C54.3471 82.0857 61.842 73.3157 71.7838 71.3509C74.2434 70.8649 76.0054 68.6916 76.0054 66.1844V66.1841C76.0054 62.8868 73.0072 60.3542 69.7715 60.9886C54.9618 63.8921 43.7935 76.9424 43.7935 92.5979C43.7935 102.772 48.5015 111.838 55.864 117.741C61.3805 122.162 68.3781 124.81 76.0054 124.81C91.6608 124.81 104.711 113.641 107.615 98.8318C108.249 95.5961 105.716 92.5979 102.419 92.5979H102.419V92.5979Z" fill="url(#paint83_linear_10_4921)"/>
<path d="M308.726 76.842C313.27 76.842 316.953 73.1585 316.953 68.6148C316.953 64.071 313.27 60.3875 308.726 60.3875C304.182 60.3875 300.499 64.071 300.499 68.6148C300.499 73.1585 304.182 76.842 308.726 76.842Z" fill="white"/>
<path d="M320.195 51.7263C322.558 51.7263 324.473 49.8109 324.473 47.4481C324.473 45.0854 322.558 43.17 320.195 43.17C317.832 43.17 315.917 45.0854 315.917 47.4481C315.917 49.8109 317.832 51.7263 320.195 51.7263Z" fill="white"/>
<path d="M296.581 53.5095C300.034 53.5095 302.834 50.7101 302.834 47.2568C302.834 43.8036 300.034 41.0042 296.581 41.0042C293.128 41.0042 290.328 43.8036 290.328 47.2568C290.328 50.7101 293.128 53.5095 296.581 53.5095Z" fill="white"/>
<defs>
<linearGradient id="paint0_linear_10_4921" x1="533.064" y1="103.605" x2="173.528" y2="408.844" gradientUnits="userSpaceOnUse">
<stop stop-color="#EAF2F7" stop-opacity="0"/>
<stop offset="1" stop-color="#A9CFCE"/>
</linearGradient>
<linearGradient id="paint1_linear_10_4921" x1="421.667" y1="-27.6072" x2="62.131" y2="277.631" gradientUnits="userSpaceOnUse">
<stop stop-color="#EAF2F7" stop-opacity="0"/>
<stop offset="1" stop-color="#DAE4F5"/>
</linearGradient>
<linearGradient id="paint2_linear_10_4921" x1="476.206" y1="36.6338" x2="116.671" y2="341.872" gradientUnits="userSpaceOnUse">
<stop stop-color="#EAF2F7" stop-opacity="0"/>
<stop offset="1" stop-color="#DAE4F5"/>
</linearGradient>
<linearGradient id="paint3_linear_10_4921" x1="621.883" y1="208.225" x2="262.348" y2="513.463" gradientUnits="userSpaceOnUse">
<stop stop-color="#EAF2F7" stop-opacity="0"/>
<stop offset="1" stop-color="#DAE4F5"/>
</linearGradient>
<linearGradient id="paint4_linear_10_4921" x1="360.329" y1="63.1005" x2="353.125" y2="155.719" gradientUnits="userSpaceOnUse">
<stop offset="0.162011" stop-color="#8A776B"/>
<stop offset="0.835195" stop-color="#4C4340"/>
</linearGradient>
<linearGradient id="paint5_linear_10_4921" x1="359.079" y1="62.3647" x2="352.56" y2="156.373" gradientUnits="userSpaceOnUse">
<stop offset="0.0888733" stop-color="#82726C" stop-opacity="0"/>
<stop offset="0.824022" stop-color="#19130E"/>
</linearGradient>
<linearGradient id="paint6_linear_10_4921" x1="302.645" y1="112.42" x2="385.558" y2="163.783" gradientUnits="userSpaceOnUse">
<stop offset="0.153631" stop-color="#FFB8A4"/>
<stop offset="0.986034" stop-color="#EC9C95"/>
</linearGradient>
<linearGradient id="paint7_linear_10_4921" x1="325.039" y1="107.217" x2="361.563" y2="174.232" gradientUnits="userSpaceOnUse">
<stop offset="0.103352" stop-color="#FFB8A4" stop-opacity="0"/>
<stop offset="0.986034" stop-color="#B35E6B"/>
</linearGradient>
<linearGradient id="paint8_linear_10_4921" x1="364.38" y1="88.4313" x2="353.058" y2="128.573" gradientUnits="userSpaceOnUse">
<stop offset="0.162011" stop-color="#8A776B"/>
<stop offset="0.835195" stop-color="#4C4340"/>
</linearGradient>
<linearGradient id="paint9_linear_10_4921" x1="365.005" y1="88.6075" x2="353.683" y2="128.75" gradientUnits="userSpaceOnUse">
<stop offset="0.162011" stop-color="#8A776B"/>
<stop offset="0.835195" stop-color="#4C4340"/>
</linearGradient>
<linearGradient id="paint10_linear_10_4921" x1="348.142" y1="83.8512" x2="336.82" y2="123.993" gradientUnits="userSpaceOnUse">
<stop offset="0.162011" stop-color="#8A776B"/>
<stop offset="0.835195" stop-color="#4C4340"/>
</linearGradient>
<linearGradient id="paint11_linear_10_4921" x1="347.82" y1="83.7605" x2="336.498" y2="123.903" gradientUnits="userSpaceOnUse">
<stop offset="0.162011" stop-color="#8A776B"/>
<stop offset="0.835195" stop-color="#4C4340"/>
</linearGradient>
<linearGradient id="paint12_linear_10_4921" x1="355.483" y1="85.9218" x2="344.161" y2="126.064" gradientUnits="userSpaceOnUse">
<stop offset="0.162011" stop-color="#8A776B"/>
<stop offset="0.835195" stop-color="#4C4340"/>
</linearGradient>
<linearGradient id="paint13_linear_10_4921" x1="426.396" y1="250.877" x2="366.011" y2="312.634" gradientUnits="userSpaceOnUse">
<stop offset="0.153631" stop-color="#FFB8A4"/>
<stop offset="0.986034" stop-color="#EC9C95"/>
</linearGradient>
<linearGradient id="paint14_linear_10_4921" x1="401.126" y1="319.365" x2="343.487" y2="222.956" gradientUnits="userSpaceOnUse">
<stop offset="0.103352" stop-color="#FFB8A4" stop-opacity="0"/>
<stop offset="0.986034" stop-color="#B35E6B"/>
</linearGradient>
<linearGradient id="paint15_linear_10_4921" x1="431.863" y1="195.079" x2="316.126" y2="300.752" gradientUnits="userSpaceOnUse">
<stop stop-color="#D7D5E9"/>
<stop offset="1" stop-color="#7D72AA"/>
</linearGradient>
<linearGradient id="paint16_linear_10_4921" x1="439.097" y1="195.067" x2="319.243" y2="294.335" gradientUnits="userSpaceOnUse">
<stop stop-color="#D7D5E9"/>
<stop offset="1" stop-color="#7D72AA"/>
</linearGradient>
<linearGradient id="paint17_linear_10_4921" x1="306.476" y1="595.59" x2="368.232" y2="616.633" gradientUnits="userSpaceOnUse">
<stop stop-color="#D1E1F4"/>
<stop offset="1" stop-color="#5EC0E3"/>
</linearGradient>
<linearGradient id="paint18_linear_10_4921" x1="348.887" y1="629.699" x2="292.163" y2="546.899" gradientUnits="userSpaceOnUse">
<stop stop-color="#76A3E4" stop-opacity="0"/>
<stop offset="1" stop-color="#49B2BE"/>
</linearGradient>
<linearGradient id="paint19_linear_10_4921" x1="336.744" y1="606.048" x2="367.28" y2="607.763" gradientUnits="userSpaceOnUse">
<stop stop-color="#D1E1F4"/>
<stop offset="1" stop-color="#5EC0E3"/>
</linearGradient>
<linearGradient id="paint20_linear_10_4921" x1="195.396" y1="390.808" x2="367.629" y2="468.348" gradientUnits="userSpaceOnUse">
<stop stop-color="#D1E1F4"/>
<stop offset="1" stop-color="#5EC0E3"/>
</linearGradient>
<linearGradient id="paint21_linear_10_4921" x1="203.218" y1="432.415" x2="405.644" y2="439.963" gradientUnits="userSpaceOnUse">
<stop stop-color="#76A3E4" stop-opacity="0"/>
<stop offset="1" stop-color="#49B2BE"/>
</linearGradient>
<linearGradient id="paint22_linear_10_4921" x1="224.791" y1="97.7259" x2="261.503" y2="137.868" gradientUnits="userSpaceOnUse">
<stop stop-color="#D7D5E9"/>
<stop offset="1" stop-color="#7D72AA"/>
</linearGradient>
<linearGradient id="paint23_linear_10_4921" x1="223.817" y1="74.8539" x2="285.949" y2="74.8539" gradientUnits="userSpaceOnUse">
<stop offset="0.153631" stop-color="#FFB8A4"/>
<stop offset="0.986034" stop-color="#EC9C95"/>
</linearGradient>
<linearGradient id="paint24_linear_10_4921" x1="220.217" y1="15.6157" x2="275.248" y2="60.6188" gradientUnits="userSpaceOnUse">
<stop offset="0.103352" stop-color="#FFB8A4" stop-opacity="0"/>
<stop offset="0.986034" stop-color="#B35E6B"/>
</linearGradient>
<linearGradient id="paint25_linear_10_4921" x1="261.009" y1="57.5416" x2="237.529" y2="148.282" gradientUnits="userSpaceOnUse">
<stop offset="0.103352" stop-color="#FFB8A4" stop-opacity="0"/>
<stop offset="0.986034" stop-color="#B35E6B"/>
</linearGradient>
<linearGradient id="paint26_linear_10_4921" x1="309.773" y1="141.814" x2="257.623" y2="489.025" gradientUnits="userSpaceOnUse">
<stop stop-color="#D7D5E9"/>
<stop offset="1" stop-color="#7D72AA"/>
</linearGradient>
<linearGradient id="paint27_linear_10_4921" x1="333.223" y1="93.3786" x2="283.817" y2="305.411" gradientUnits="userSpaceOnUse">
<stop offset="0.0223464" stop-color="white"/>
<stop offset="1" stop-color="#CDC7E2" stop-opacity="0"/>
</linearGradient>
<linearGradient id="paint28_linear_10_4921" x1="374.503" y1="141.074" x2="78.7559" y2="335.265" gradientUnits="userSpaceOnUse">
<stop stop-color="#D7D5E9"/>
<stop offset="1" stop-color="#7D72AA"/>
</linearGradient>
<linearGradient id="paint29_linear_10_4921" x1="323.236" y1="87.732" x2="290.3" y2="471.635" gradientUnits="userSpaceOnUse">
<stop stop-color="#D7D5E9"/>
<stop offset="1" stop-color="#7D72AA"/>
</linearGradient>
<linearGradient id="paint30_linear_10_4921" x1="378.547" y1="284.493" x2="418.357" y2="284.493" gradientUnits="userSpaceOnUse">
<stop offset="0.153631" stop-color="#FFB8A4"/>
<stop offset="0.986034" stop-color="#EC9C95"/>
</linearGradient>
<linearGradient id="paint31_linear_10_4921" x1="367.957" y1="246.667" x2="435.136" y2="321.02" gradientUnits="userSpaceOnUse">
<stop offset="0.103352" stop-color="#FFB8A4" stop-opacity="0"/>
<stop offset="0.986034" stop-color="#B35E6B"/>
</linearGradient>
<linearGradient id="paint32_linear_10_4921" x1="388.243" y1="177.969" x2="400.594" y2="189.177" gradientUnits="userSpaceOnUse">
<stop stop-color="#E9E7D5"/>
<stop offset="1" stop-color="#AAA468"/>
</linearGradient>
<linearGradient id="paint33_linear_10_4921" x1="377.381" y1="185.927" x2="422.898" y2="202.395" gradientUnits="userSpaceOnUse">
<stop stop-color="#E9E7D5"/>
<stop offset="1" stop-color="#AAA468"/>
</linearGradient>
<linearGradient id="paint34_linear_10_4921" x1="395.837" y1="147.234" x2="508.372" y2="236.439" gradientUnits="userSpaceOnUse">
<stop stop-color="#E9E7D5"/>
<stop offset="1" stop-color="#AAA468"/>
</linearGradient>
<linearGradient id="paint35_linear_10_4921" x1="432.175" y1="175.029" x2="473.689" y2="213.113" gradientUnits="userSpaceOnUse">
<stop stop-color="#E9E7D5"/>
<stop offset="1" stop-color="#AAA468"/>
</linearGradient>
<linearGradient id="paint36_linear_10_4921" x1="394.445" y1="237.369" x2="412.629" y2="249.549" gradientUnits="userSpaceOnUse">
<stop stop-color="#E9E7D5"/>
<stop offset="1" stop-color="#AAA468"/>
</linearGradient>
<linearGradient id="paint37_linear_10_4921" x1="338.71" y1="219.302" x2="451.245" y2="308.506" gradientUnits="userSpaceOnUse">
<stop stop-color="#E9E7D5"/>
<stop offset="1" stop-color="#AAA468"/>
</linearGradient>
<linearGradient id="paint38_linear_10_4921" x1="380.768" y1="282.284" x2="401.869" y2="263.071" gradientUnits="userSpaceOnUse">
<stop stop-color="#E9E7D5"/>
<stop offset="1" stop-color="#AAA468"/>
</linearGradient>
<linearGradient id="paint39_linear_10_4921" x1="561.781" y1="160.35" x2="450.962" y2="202.551" gradientUnits="userSpaceOnUse">
<stop stop-color="#E9E7D5"/>
<stop offset="1" stop-color="#AAA468"/>
</linearGradient>
<linearGradient id="paint40_linear_10_4921" x1="534.44" y1="144.062" x2="438.03" y2="220.915" gradientUnits="userSpaceOnUse">
<stop stop-color="#E9E7D5"/>
<stop offset="1" stop-color="#AAA468"/>
</linearGradient>
<linearGradient id="paint41_linear_10_4921" x1="396.394" y1="237.056" x2="438.63" y2="237.056" gradientUnits="userSpaceOnUse">
<stop offset="0.153631" stop-color="#FFB8A4"/>
<stop offset="0.986034" stop-color="#EC9C95"/>
</linearGradient>
<linearGradient id="paint42_linear_10_4921" x1="478.166" y1="223.113" x2="380.577" y2="225.925" gradientUnits="userSpaceOnUse">
<stop offset="0.103352" stop-color="#FFB8A4" stop-opacity="0"/>
<stop offset="0.986034" stop-color="#B35E6B"/>
</linearGradient>
<linearGradient id="paint43_linear_10_4921" x1="478.364" y1="229.991" x2="380.776" y2="232.804" gradientUnits="userSpaceOnUse">
<stop offset="0.103352" stop-color="#FFB8A4" stop-opacity="0"/>
<stop offset="0.986034" stop-color="#B35E6B"/>
</linearGradient>
<linearGradient id="paint44_linear_10_4921" x1="478.592" y1="237.875" x2="381.003" y2="240.688" gradientUnits="userSpaceOnUse">
<stop offset="0.103352" stop-color="#FFB8A4" stop-opacity="0"/>
<stop offset="0.986034" stop-color="#B35E6B"/>
</linearGradient>
<linearGradient id="paint45_linear_10_4921" x1="478.994" y1="251.823" x2="381.405" y2="254.636" gradientUnits="userSpaceOnUse">
<stop offset="0.103352" stop-color="#FFB8A4" stop-opacity="0"/>
<stop offset="0.986034" stop-color="#B35E6B"/>
</linearGradient>
<linearGradient id="paint46_linear_10_4921" x1="434.684" y1="177.007" x2="456.642" y2="197.25" gradientUnits="userSpaceOnUse">
<stop stop-color="#E9E7D5"/>
<stop offset="1" stop-color="#AAA468"/>
</linearGradient>
<linearGradient id="paint47_linear_10_4921" x1="438.706" y1="173.453" x2="478.505" y2="207.076" gradientUnits="userSpaceOnUse">
<stop stop-color="#E9E7D5"/>
<stop offset="1" stop-color="#AAA468"/>
</linearGradient>
<linearGradient id="paint48_linear_10_4921" x1="457.071" y1="151.715" x2="496.87" y2="185.338" gradientUnits="userSpaceOnUse">
<stop stop-color="#E9E7D5"/>
<stop offset="1" stop-color="#AAA468"/>
</linearGradient>
<linearGradient id="paint49_linear_10_4921" x1="419.959" y1="121.184" x2="442.603" y2="121.184" gradientUnits="userSpaceOnUse">
<stop offset="0.0391061" stop-color="#DCD3D5"/>
<stop offset="1" stop-color="#CA84B4"/>
</linearGradient>
<linearGradient id="paint50_linear_10_4921" x1="461.729" y1="114.215" x2="479.196" y2="114.215" gradientUnits="userSpaceOnUse">
<stop offset="0.0391061" stop-color="#DCD3D5"/>
<stop offset="1" stop-color="#CA84B4"/>
</linearGradient>
<linearGradient id="paint51_linear_10_4921" x1="442.603" y1="84.7019" x2="456.005" y2="84.7019" gradientUnits="userSpaceOnUse">
<stop offset="0.0391061" stop-color="#DCD3D5"/>
<stop offset="1" stop-color="#CA84B4"/>
</linearGradient>
<linearGradient id="paint52_linear_10_4921" x1="187.5" y1="69.3198" x2="210.144" y2="69.3198" gradientUnits="userSpaceOnUse">
<stop offset="0.0391061" stop-color="#DCD3D5"/>
<stop offset="1" stop-color="#CA84B4"/>
</linearGradient>
<linearGradient id="paint53_linear_10_4921" x1="150.907" y1="76.2889" x2="168.374" y2="76.2889" gradientUnits="userSpaceOnUse">
<stop offset="0.0391061" stop-color="#DCD3D5"/>
<stop offset="1" stop-color="#CA84B4"/>
</linearGradient>
<linearGradient id="paint54_linear_10_4921" x1="174.098" y1="105.802" x2="187.5" y2="105.802" gradientUnits="userSpaceOnUse">
<stop offset="0.0391061" stop-color="#DCD3D5"/>
<stop offset="1" stop-color="#CA84B4"/>
</linearGradient>
<linearGradient id="paint55_linear_10_4921" x1="268.839" y1="291.015" x2="402.639" y2="393.938" gradientUnits="userSpaceOnUse">
<stop stop-color="#D1E1F4"/>
<stop offset="1" stop-color="#5EC0E3"/>
</linearGradient>
<linearGradient id="paint56_linear_10_4921" x1="337.359" y1="299.315" x2="296.531" y2="380.629" gradientUnits="userSpaceOnUse">
<stop stop-color="#76A3E4" stop-opacity="0"/>
<stop offset="1" stop-color="#49B2BE"/>
</linearGradient>
<linearGradient id="paint57_linear_10_4921" x1="246.094" y1="320.582" x2="379.894" y2="423.506" gradientUnits="userSpaceOnUse">
<stop stop-color="#D1E1F4"/>
<stop offset="1" stop-color="#5EC0E3"/>
</linearGradient>
<linearGradient id="paint58_linear_10_4921" x1="279.359" y1="315.107" x2="363.988" y2="418.95" gradientUnits="userSpaceOnUse">
<stop stop-color="#76A3E4" stop-opacity="0"/>
<stop offset="1" stop-color="#49B2BE"/>
</linearGradient>
<linearGradient id="paint59_linear_10_4921" x1="304.232" y1="448.841" x2="306.29" y2="432.372" gradientUnits="userSpaceOnUse">
<stop stop-color="#D1E1F4"/>
<stop offset="1" stop-color="#5EC0E3"/>
</linearGradient>
<linearGradient id="paint60_linear_10_4921" x1="297.817" y1="417.392" x2="318.059" y2="417.392" gradientUnits="userSpaceOnUse">
<stop offset="0.153631" stop-color="#FFB8A4"/>
<stop offset="0.986034" stop-color="#EC9C95"/>
</linearGradient>
<linearGradient id="paint61_linear_10_4921" x1="283.805" y1="437.587" x2="314.683" y2="484.248" gradientUnits="userSpaceOnUse">
<stop stop-color="#D1E1F4"/>
<stop offset="1" stop-color="#5EC0E3"/>
</linearGradient>
<linearGradient id="paint62_linear_10_4921" x1="301.763" y1="471.015" x2="315.144" y2="492.63" gradientUnits="userSpaceOnUse">
<stop stop-color="#D1E1F4"/>
<stop offset="1" stop-color="#5EC0E3"/>
</linearGradient>
<linearGradient id="paint63_linear_10_4921" x1="282.578" y1="446.549" x2="371.096" y2="431.796" gradientUnits="userSpaceOnUse">
<stop stop-color="#76A3E4" stop-opacity="0"/>
<stop offset="1" stop-color="#49B2BE"/>
</linearGradient>
<linearGradient id="paint64_linear_10_4921" x1="160.996" y1="491.912" x2="186.157" y2="642.416" gradientUnits="userSpaceOnUse">
<stop offset="0.0391061" stop-color="#DCD3D5"/>
<stop offset="1" stop-color="#CA84B4"/>
</linearGradient>
<linearGradient id="paint65_linear_10_4921" x1="87.8299" y1="178.955" x2="122.824" y2="384.802" gradientUnits="userSpaceOnUse">
<stop stop-color="#D7D5E9"/>
<stop offset="1" stop-color="#7D72AA"/>
</linearGradient>
<linearGradient id="paint66_linear_10_4921" x1="458.688" y1="342.021" x2="439.133" y2="549.926" gradientUnits="userSpaceOnUse">
<stop stop-color="#E9E7D5"/>
<stop offset="1" stop-color="#AAA468"/>
</linearGradient>
<linearGradient id="paint67_linear_10_4921" x1="72.3524" y1="316.478" x2="72.3524" y2="470.188" gradientUnits="userSpaceOnUse">
<stop stop-color="#E6E7D3"/>
<stop offset="1" stop-color="#9CA870"/>
</linearGradient>
<linearGradient id="paint68_linear_10_4921" x1="50.241" y1="399.262" x2="50.241" y2="432.475" gradientUnits="userSpaceOnUse">
<stop offset="0.0391061" stop-color="#CCDADA"/>
<stop offset="1" stop-color="#7EC8AB"/>
</linearGradient>
<linearGradient id="paint69_linear_10_4921" x1="7.61379" y1="372.496" x2="7.61379" y2="386.839" gradientUnits="userSpaceOnUse">
<stop offset="0.0391061" stop-color="#CCDADA"/>
<stop offset="1" stop-color="#7EC8AB"/>
</linearGradient>
<linearGradient id="paint70_linear_10_4921" x1="547.816" y1="41.9338" x2="524.679" y2="106.121" gradientUnits="userSpaceOnUse">
<stop stop-color="#EAF2F7" stop-opacity="0"/>
<stop offset="1" stop-color="#A9CFCE"/>
</linearGradient>
<linearGradient id="paint71_linear_10_4921" x1="525.275" y1="80.2968" x2="546.099" y2="156.205" gradientUnits="userSpaceOnUse">
<stop offset="0.0391061" stop-color="#CCDADA"/>
<stop offset="1" stop-color="#7EC8AB"/>
</linearGradient>
<linearGradient id="paint72_linear_10_4921" x1="542.592" y1="130.571" x2="542.592" y2="209.074" gradientUnits="userSpaceOnUse">
<stop stop-color="#EAF2F7" stop-opacity="0"/>
<stop offset="1" stop-color="#A9CFCE"/>
</linearGradient>
<linearGradient id="paint73_linear_10_4921" x1="553.969" y1="130.571" x2="553.969" y2="209.074" gradientUnits="userSpaceOnUse">
<stop stop-color="#EAF2F7" stop-opacity="0"/>
<stop offset="1" stop-color="#A9CFCE"/>
</linearGradient>
<linearGradient id="paint74_linear_10_4921" x1="526.294" y1="130.571" x2="526.294" y2="209.074" gradientUnits="userSpaceOnUse">
<stop stop-color="#EAF2F7" stop-opacity="0"/>
<stop offset="1" stop-color="#A9CFCE"/>
</linearGradient>
<linearGradient id="paint75_linear_10_4921" x1="470.429" y1="279.06" x2="534.853" y2="279.06" gradientUnits="userSpaceOnUse">
<stop stop-color="#EAF2F7" stop-opacity="0"/>
<stop offset="1" stop-color="#A9CFCE"/>
</linearGradient>
<linearGradient id="paint76_linear_10_4921" x1="536.948" y1="340.335" x2="471.839" y2="237.212" gradientUnits="userSpaceOnUse">
<stop offset="0.0391061" stop-color="#CCDADA"/>
<stop offset="1" stop-color="#7EC8AB"/>
</linearGradient>
<linearGradient id="paint77_linear_10_4921" x1="190.204" y1="360.097" x2="167.067" y2="424.284" gradientUnits="userSpaceOnUse">
<stop stop-color="#EAF2F7" stop-opacity="0"/>
<stop offset="1" stop-color="#A9CFCE"/>
</linearGradient>
<linearGradient id="paint78_linear_10_4921" x1="167.662" y1="398.46" x2="188.487" y2="474.368" gradientUnits="userSpaceOnUse">
<stop offset="0.0391061" stop-color="#CCDADA"/>
<stop offset="1" stop-color="#7EC8AB"/>
</linearGradient>
<linearGradient id="paint79_linear_10_4921" x1="214.247" y1="192.984" x2="214.247" y2="271.486" gradientUnits="userSpaceOnUse">
<stop stop-color="#EAF2F7" stop-opacity="0"/>
<stop offset="1" stop-color="#A9CFCE"/>
</linearGradient>
<linearGradient id="paint80_linear_10_4921" x1="225.624" y1="192.984" x2="225.624" y2="271.486" gradientUnits="userSpaceOnUse">
<stop stop-color="#EAF2F7" stop-opacity="0"/>
<stop offset="1" stop-color="#A9CFCE"/>
</linearGradient>
<linearGradient id="paint81_linear_10_4921" x1="197.95" y1="192.984" x2="197.95" y2="271.486" gradientUnits="userSpaceOnUse">
<stop stop-color="#EAF2F7" stop-opacity="0"/>
<stop offset="1" stop-color="#A9CFCE"/>
</linearGradient>
<linearGradient id="paint82_linear_10_4921" x1="43.7935" y1="92.5996" x2="108.217" y2="92.5996" gradientUnits="userSpaceOnUse">
<stop stop-color="#EAF2F7" stop-opacity="0"/>
<stop offset="1" stop-color="#A9CFCE"/>
</linearGradient>
<linearGradient id="paint83_linear_10_4921" x1="110.312" y1="153.875" x2="45.2033" y2="50.752" gradientUnits="userSpaceOnUse">
<stop offset="0.0391061" stop-color="#CCDADA"/>
<stop offset="1" stop-color="#7EC8AB"/>
</linearGradient>
</defs>
</svg>
