<svg width="135" height="119" viewBox="0 0 135 119" fill="none" xmlns="http://www.w3.org/2000/svg">
<path d="M90.0175 55.7294C90.0175 75.6111 73.8904 91.7382 54.0088 91.7382C34.1271 91.7382 18 75.6111 18 55.7294C18 35.8368 34.1271 19.7207 54.0088 19.7207C73.8904 19.7207 90.0175 35.8368 90.0175 55.7294Z" fill="#EBDEFF"/>
<path d="M56.402 51.9308C56.402 57.376 51.9888 61.7893 46.5435 61.7893C41.0983 61.7893 36.6851 57.376 36.6851 51.9308C36.6851 46.4855 41.0983 42.0723 46.5435 42.0723C51.9888 42.0832 56.402 46.4965 56.402 51.9308Z" fill="white"/>
<path d="M50.9452 51.9308C50.9452 57.376 46.532 61.7893 41.0868 61.7893C35.6415 61.7893 31.2283 57.376 31.2283 51.9308C31.2283 46.4855 35.6415 42.0723 41.0868 42.0723C46.543 42.0832 50.9452 46.4965 50.9452 51.9308Z" fill="#99EDF2"/>
<path d="M56.4021 51.9311H55.5239C55.5239 54.4122 54.5248 56.6517 52.9001 58.2765C51.2753 59.9013 49.0357 60.9003 46.5546 60.9003C44.0735 60.9003 41.834 59.9013 40.2092 58.2765C38.5844 56.6517 37.5744 54.4122 37.5744 51.9311C37.5744 49.45 38.5734 47.2104 40.2092 45.5856C41.834 43.9609 44.0735 42.9509 46.5546 42.9509C49.0357 42.9509 51.2753 43.9499 52.9001 45.5856C54.5248 47.2104 55.5239 49.45 55.5239 51.9311H56.4021H57.2804C57.2804 46.0028 52.4719 41.1943 46.5436 41.1943C40.6154 41.1943 35.8069 46.0028 35.8069 51.9311C35.8069 57.8594 40.6154 62.6678 46.5436 62.6678C52.4719 62.6678 57.2804 57.8594 57.2804 51.9311H56.4021Z" fill="#4529C7"/>
<path d="M61.3754 70.0118C61.2876 69.9459 55.4472 65.1594 46.3571 65.1484C42.2074 65.1484 37.3989 66.1584 32.2281 69.0677C31.0315 69.7483 30.3398 71.0328 30.3398 72.3721V88.7078L30.4057 88.8615C30.4386 88.9493 31.1083 90.5851 33.0515 92.2099C34.9836 93.8347 38.2003 95.4155 43.1515 95.4046C44.6006 95.4046 46.2034 95.2728 47.96 94.9654C48.432 94.8886 48.7614 94.4275 48.6736 93.9554C48.5857 93.4834 48.1356 93.154 47.6636 93.2418C45.9949 93.5273 44.4908 93.648 43.1515 93.648C38.5736 93.6371 35.829 92.2318 34.1822 90.8595C33.3589 90.1679 32.8209 89.4873 32.4806 88.9823C32.3159 88.7298 32.1952 88.5212 32.1293 88.3894L32.0525 88.2358L32.0415 88.2028L32.0195 88.2138L32.0415 88.2028L32.0195 88.2138L32.0415 88.2028L31.2291 88.5322H32.1073V72.3611C32.1073 71.6256 32.4916 70.934 33.1064 70.5937C38.0246 67.8271 42.5147 66.905 46.3791 66.894C50.6057 66.894 54.0968 68.0138 56.534 69.1445C57.7526 69.7044 58.6967 70.2753 59.3445 70.6925C59.6628 70.901 59.9043 71.0767 60.069 71.1865L60.2447 71.3182L60.2886 71.3512L60.2996 71.3621C60.6728 71.6695 61.2217 71.6146 61.5291 71.2414C61.8036 70.8791 61.7487 70.3192 61.3754 70.0118Z" fill="#4529C7"/>
<path d="M62.6595 76.4783L51.1214 98.9619C50.9457 99.3022 51.1982 99.7194 51.5825 99.7194H69.6308C69.8284 99.7194 70.004 99.6096 70.0918 99.4449L81.9374 76.9614C82.124 76.6101 81.8715 76.2039 81.4763 76.2039H63.1206C62.923 76.1929 62.7474 76.3027 62.6595 76.4783Z" fill="#99EDF2"/>
<path d="M57.9496 75.6L57.1701 75.2047L45.632 97.6883C45.5332 97.8859 45.4783 98.1055 45.4783 98.325C45.4783 98.6983 45.621 99.0386 45.8735 99.2911C46.115 99.5436 46.4883 99.7193 46.8725 99.7193H64.9208C65.4368 99.7193 65.9088 99.4338 66.1504 98.9727L77.9959 76.4892C78.1057 76.2806 78.1606 76.0611 78.1606 75.8415C78.1606 75.4682 78.0179 75.1279 77.7654 74.8754C77.5239 74.6229 77.1506 74.4473 76.7664 74.4473H58.4107C57.8837 74.4473 57.4117 74.7436 57.1701 75.2047L57.9496 75.6L58.729 75.9952L58.4107 75.8305V76.1928C58.5424 76.1928 58.6632 76.1159 58.729 75.9952L58.4107 75.8305V76.1928H76.7664V75.8305L76.5029 76.083L76.7664 76.1928V75.8305L76.5029 76.083L76.7554 75.8415H76.4041C76.4041 75.9403 76.437 76.0281 76.5029 76.083L76.7554 75.8415H76.4041H76.7664L76.448 75.6768L76.4041 75.8415H76.7664L76.448 75.6768L64.6024 98.1603L64.9208 98.325V97.9627C64.7891 97.9627 64.6683 98.0396 64.6024 98.1494L64.9208 98.314V97.9517H46.8725V98.314L47.136 98.0615L46.8725 97.9517V98.314L47.136 98.0615L46.8835 98.314H47.2348C47.2348 98.2152 47.2019 98.1274 47.136 98.0615L46.8835 98.314H47.2348H46.8725L47.1909 98.4787L47.2348 98.314H46.8725L47.1909 98.4787L58.729 75.9952L57.9496 75.6Z" fill="#4529C7"/>
<path d="M38.3098 77.7074V84.5358C38.3098 86.468 39.8687 88.027 41.8009 88.027L51.5167 87.9391C51.9997 87.9391 52.3949 87.5439 52.384 87.0499C52.384 86.5668 51.9887 86.1716 51.4947 86.1826L41.779 86.2704H41.7899C40.8238 86.2704 40.0554 85.491 40.0554 84.5358V77.7074C40.0554 77.2243 39.6601 76.8291 39.1771 76.8291C38.705 76.8291 38.3098 77.2243 38.3098 77.7074Z" fill="#4529C7"/>
<path d="M47.3339 76.8958L54.7662 81.6164C55.1724 81.8799 55.7213 81.7592 55.9738 81.342C56.2373 80.9358 56.1165 80.3869 55.6993 80.1344L48.267 75.4137C47.8608 75.1502 47.3119 75.271 47.0594 75.6881C46.796 76.0943 46.9167 76.6323 47.3339 76.8958Z" fill="#4529C7"/>
<path d="M35.8176 94.1859V103.946C35.8176 104.429 36.2128 104.824 36.6959 104.824C37.1789 104.824 37.5742 104.429 37.5742 103.946V94.1859C37.5742 93.7028 37.1789 93.3076 36.6959 93.3076C36.2128 93.3076 35.8176 93.7028 35.8176 94.1859Z" fill="#4529C7"/>
<path d="M59.2237 103.869V98.83C59.2237 98.2042 58.7187 97.6992 58.0929 97.6992C57.4672 97.6992 56.9622 98.2042 56.9622 98.83V103.869C56.9622 104.495 57.4672 105 58.0929 105C58.7187 105.011 59.2237 104.495 59.2237 103.869Z" fill="#4529C7"/>
<path d="M62.8571 89.4767H66.9959C68.2035 89.4767 69.3124 88.818 69.8942 87.7641L70.6078 86.4797C71.3653 85.1074 70.3663 83.4277 68.8073 83.4277H66.1945C65.2065 83.4277 64.3172 84.0096 63.911 84.8988L62.2643 88.5436C62.0557 88.9827 62.3741 89.4767 62.8571 89.4767Z" fill="white"/>
<path d="M62.8573 89.4763V90.3546H66.9961C68.5221 90.3546 69.9273 89.5203 70.6628 88.1919L71.3764 86.8965C71.6289 86.4464 71.7387 85.9523 71.7387 85.4803C71.7387 84.7008 71.4313 83.9762 70.9153 83.4383C70.3994 82.9003 69.6419 82.5381 68.8075 82.5381H66.1947C64.8663 82.5381 63.6587 83.3175 63.1098 84.5361L61.463 88.1809C61.3752 88.3785 61.3313 88.5981 61.3313 88.8067C61.3313 89.2129 61.496 89.5971 61.7704 89.8716C62.0339 90.157 62.4401 90.3436 62.8683 90.3436V89.4763V88.5981V88.8177L63.0219 88.664L62.8683 88.5981V88.8177L63.0219 88.664L62.8683 88.8177H63.0878L63.0219 88.664L62.8683 88.8177H63.0878H62.8683L63.0659 88.9055L63.0878 88.8177H62.8683L63.0659 88.9055L64.7016 85.2607C64.9651 84.6788 65.547 84.3056 66.1837 84.3056H68.7965C69.1478 84.3056 69.4333 84.4483 69.6418 84.6569C69.8504 84.8765 69.9822 85.1838 69.9822 85.4803C69.9822 85.6669 69.9383 85.8535 69.8285 86.0511L69.1149 87.3466C68.6867 88.126 67.8743 88.5981 66.9851 88.5981H62.8463V89.4763H62.8573Z" fill="#4529C7"/>
<path d="M70.6295 57.2554V56.3771H65.4807C64.9427 56.3771 64.5036 55.938 64.5036 55.4001V19.0949C64.5036 17.7995 65.5465 16.7565 66.842 16.7565H113.313C113.873 16.7565 114.323 17.2067 114.323 17.7665V53.8851C114.323 55.2574 113.214 56.3662 111.842 56.3662H85.6478C84.1437 56.3662 82.7385 57.0798 81.8383 58.2874L74.6585 68.0031C74.5268 68.1678 74.406 68.2117 74.2413 68.2227C74.1096 68.2227 73.9559 68.1678 73.8681 68.08C73.7693 67.9922 73.7144 67.8934 73.7034 67.7067L73.3192 58.9351C73.2533 57.4969 72.0676 56.3552 70.6295 56.3552V57.2554V58.1337C71.1345 58.1337 71.5517 58.5289 71.5736 59.0339L71.9578 67.7945C71.9798 68.4423 72.2872 69.0241 72.7154 69.3974C73.1435 69.7816 73.6924 69.9792 74.2523 69.9792C74.911 69.9902 75.6246 69.6718 76.0747 69.0461L83.2545 59.3303C83.8144 58.5728 84.7036 58.1227 85.6478 58.1227H111.842C114.18 58.1227 116.08 56.2235 116.08 53.8851V17.7665C116.08 16.2406 114.839 15 113.313 15H66.842C64.5805 15 62.7471 16.8334 62.7471 19.0949V55.4001C62.7471 56.9041 63.9657 58.1337 65.4807 58.1337H70.6295V57.2554Z" fill="#4529C7"/>
<path d="M97.9436 32.6309C97.9436 36.8465 94.5294 40.2608 90.3137 40.2608C86.0981 40.2608 82.6838 36.8465 82.6838 32.6309C82.6838 28.4152 86.0981 25.001 90.3137 25.001C94.5294 24.99 97.9436 28.4152 97.9436 32.6309Z" fill="white"/>
<path d="M97.9441 32.6308H96.8572C96.8572 34.4422 96.1217 36.067 94.936 37.2527C93.7504 38.4383 92.1146 39.1629 90.3032 39.1739C88.4918 39.1739 86.867 38.4383 85.6704 37.2527C84.4847 36.067 83.7601 34.4312 83.7601 32.6308C83.7601 30.8303 84.4957 29.1946 85.6704 27.998C86.856 26.8123 88.4918 26.0877 90.3032 26.0768C92.1146 26.0768 93.7394 26.8123 94.936 27.998C96.1217 29.1836 96.8572 30.8194 96.8572 32.6308H97.9441H99.0309C99.0309 27.8113 95.1227 23.9141 90.3142 23.9141C85.4947 23.9141 81.5974 27.8113 81.5974 32.6308C81.5974 37.4502 85.5057 41.3475 90.3142 41.3475C95.1336 41.3475 99.0309 37.4502 99.0309 32.6308H97.9441Z" fill="#9954FF"/>
<path d="M100.196 51.9652C100.196 51.9652 102.651 41.6328 88.3977 41.6328H90.6024C76.3611 41.6328 78.8042 51.9652 78.8042 51.9652" fill="white"/>
<path d="M80.1589 51.2218L79.7857 51.3096L80.1589 51.2218L79.7857 51.3096L80.1589 51.2218C80.1589 51.2108 80.0382 50.6729 80.0382 49.8934C80.0382 49.2896 80.115 48.5431 80.3456 47.7856C80.7079 46.6438 81.3995 45.4801 82.8706 44.525C84.3417 43.5809 86.6691 42.8563 90.3029 42.8563C90.9067 42.8563 91.3897 42.3733 91.3897 41.7695C91.3897 41.1657 90.9067 40.6826 90.3029 40.6826C87.69 40.6826 85.5932 41.0339 83.9135 41.6268C81.3885 42.516 79.8076 44.0091 78.9294 45.579C78.0511 47.1488 77.8535 48.7407 77.8535 49.8934C77.8535 50.9583 78.0182 51.6719 78.0401 51.7268C78.1829 52.3086 78.7647 52.6709 79.3575 52.5282C79.9394 52.3855 80.3017 51.8036 80.1589 51.2218Z" fill="#9954FF"/>
<path d="M101.095 51.727C101.106 51.6721 101.281 50.9585 101.281 49.8936C101.281 49.1251 101.194 48.159 100.875 47.1381C100.403 45.6121 99.3711 43.9214 97.4389 42.6919C95.5068 41.4623 92.7512 40.6719 88.832 40.6719C88.2282 40.6719 87.7451 41.1549 87.7451 41.7587C87.7451 42.3625 88.2282 42.8456 88.832 42.8456C91.2582 42.8456 93.1025 43.1639 94.4968 43.6689C96.5826 44.4154 97.6695 45.5133 98.3172 46.6441C98.9539 47.7748 99.1186 48.9824 99.1186 49.8936C99.1186 50.3108 99.0857 50.6511 99.0527 50.8926C99.0418 51.0134 99.0198 51.1012 99.0088 51.1561L98.9979 51.211V51.222L99.3711 51.3098L98.9979 51.222L99.3711 51.3098L98.9979 51.222C98.8551 51.8038 99.2174 52.3967 99.7993 52.5284C100.37 52.6711 100.952 52.3088 101.095 51.727Z" fill="#9954FF"/>
</svg>
