<svg width="40" height="40" viewBox="0 0 40 40" fill="none" xmlns="http://www.w3.org/2000/svg">
<path d="M22.817 7.96973C22.537 7.96973 22.257 8.03972 21.997 8.17972L12.917 13.2097C12.027 13.6997 12.027 14.9797 12.917 15.4697L21.387 20.1597L32.327 14.0797C32.607 13.9197 32.637 13.6597 32.637 13.5497C32.637 13.4397 32.607 13.1797 32.327 13.0197L23.587 8.1597C23.347 8.0297 23.087 7.96973 22.817 7.96973ZM32.697 15.4497L23.527 20.5497C23.557 20.5297 23.587 20.5197 23.617 20.4997L32.687 15.4597C32.687 15.4597 32.687 15.4597 32.697 15.4497Z" fill="#00CFDE"/>
<path d="M20.107 5C19.697 5 19.287 5.1 18.907 5.31L7.177 11.81C6.537 12.17 6.14697 12.82 6.14697 13.55C6.14697 14.28 6.527 14.93 7.177 15.29L18.937 21.81C19.307 22.01 19.707 22.11 20.107 22.11C20.507 22.11 20.917 22.01 21.277 21.8L23.517 20.55C23.297 20.66 23.057 20.71 22.807 20.71C22.537 20.71 22.257 20.64 22.017 20.5L21.387 20.15L20.607 20.58C20.447 20.67 20.277 20.71 20.107 20.71C19.937 20.71 19.757 20.67 19.607 20.58L7.84698 14.06C7.56698 13.9 7.53699 13.64 7.53699 13.53C7.53699 13.42 7.56698 13.15 7.84698 13L19.577 6.5C19.747 6.41 19.927 6.35999 20.107 6.35999C20.287 6.35999 20.477 6.41 20.637 6.5L23.587 8.13998C23.607 8.14998 23.617 8.15998 23.637 8.16998L32.677 13.19C33.557 13.68 33.567 14.94 32.687 15.44L32.997 15.27C33.637 14.91 34.017 14.26 34.017 13.53C34.017 12.8 33.637 12.15 32.997 11.79L21.297 5.28998C20.927 5.09998 20.517 5 20.107 5Z" fill="#9654FF"/>
<path d="M23.587 8.16016L32.327 13.0202C32.607 13.1802 32.637 13.4402 32.637 13.5502C32.637 13.6602 32.607 13.9202 32.327 14.0802L21.387 20.1602L22.017 20.5102C22.267 20.6502 22.537 20.7102 22.807 20.7102C23.047 20.7102 23.287 20.6602 23.517 20.5502L32.687 15.4502C33.557 14.9502 33.557 13.6902 32.677 13.2002L23.637 8.18018C23.627 8.17018 23.607 8.17016 23.587 8.16016Z" fill="#0045DE"/>
<path d="M8.26699 17.5498C7.72699 17.5498 7.15699 17.7298 6.64699 18.2598C6.14699 18.7898 5.917 19.4898 6.027 20.1898C6.137 20.8798 6.54701 21.4698 7.16701 21.8198L18.927 28.3398C19.287 28.5398 19.687 28.6398 20.097 28.6398C20.507 28.6398 20.907 28.5398 21.267 28.3398L33.027 21.8198C33.047 21.8098 33.067 21.7998 33.087 21.7798C33.077 21.7898 33.057 21.7998 33.047 21.7998L25.937 25.7298C25.607 25.9098 25.247 25.9998 24.897 25.9998C24.397 25.9998 23.897 25.8298 23.497 25.5098L20.597 27.1198C20.447 27.1998 20.267 27.2498 20.097 27.2498C19.927 27.2498 19.747 27.1998 19.597 27.1198L7.83699 20.6098C7.59699 20.4798 7.43699 20.2498 7.39699 19.9798C7.35699 19.7098 7.447 19.4298 7.657 19.2198C7.837 19.0298 8.03701 18.9398 8.29701 18.9398C8.62701 18.9398 9.05698 19.0998 9.63698 19.4198L18.937 24.5698C19.297 24.7698 19.697 24.8698 20.107 24.8698C20.517 24.8698 20.917 24.7598 21.277 24.5698L22.577 23.8498C22.487 23.0098 22.857 22.1798 23.567 21.7198L20.607 23.3598C20.457 23.4398 20.277 23.4898 20.107 23.4898C19.937 23.4898 19.757 23.4398 19.607 23.3598L10.307 18.2098C9.90702 17.9898 9.11699 17.5498 8.26699 17.5498ZM30.257 18.0198C30.117 18.0898 30.007 18.1498 29.907 18.2098L26.567 20.0598L30.257 18.0198Z" fill="#9654FF"/>
<path d="M8.26699 24.0703C7.72699 24.0703 7.15699 24.2503 6.64699 24.7803C6.14699 25.3103 5.917 26.0103 6.027 26.7103C6.137 27.4003 6.54701 27.9903 7.16701 28.3303L18.927 34.8503C19.287 35.0503 19.687 35.1503 20.097 35.1503C20.507 35.1503 20.907 35.0403 21.267 34.8503L33.027 28.3303C33.047 28.3203 33.067 28.3103 33.087 28.2903C33.067 28.3003 33.057 28.3103 33.037 28.3103L25.937 32.2403C25.607 32.4203 25.247 32.5103 24.897 32.5103C24.397 32.5103 23.907 32.3403 23.497 32.0203L20.597 33.6303C20.447 33.7103 20.267 33.7603 20.097 33.7603C19.927 33.7603 19.747 33.7103 19.597 33.6303L7.83699 27.1103C7.59699 26.9803 7.43698 26.7503 7.38698 26.4803C7.34698 26.2103 7.43699 25.9303 7.64699 25.7103C7.82699 25.5203 8.02701 25.4303 8.28701 25.4303C8.61701 25.4303 9.04697 25.5903 9.62697 25.9103L18.927 31.0603C19.287 31.2603 19.687 31.3603 20.097 31.3603H20.107C20.517 31.3603 20.917 31.2603 21.277 31.0603L22.577 30.3403C22.487 29.5003 22.857 28.6703 23.567 28.2103L20.607 29.8503C20.457 29.9403 20.277 29.9803 20.107 29.9803C19.937 29.9803 19.757 29.9303 19.607 29.8503L10.307 24.7003C9.90702 24.5103 9.11699 24.0703 8.26699 24.0703ZM30.257 24.5403C30.117 24.6103 29.997 24.6803 29.907 24.7303L26.557 26.5803L30.257 24.5403Z" fill="#9654FF"/>
<path d="M31.9269 17.5303C31.4669 17.5303 30.9469 17.6503 30.3769 17.9503L30.2569 18.0203C30.6869 17.8003 31.297 17.5503 31.937 17.5503C32.477 17.5503 33.0469 17.7303 33.5569 18.2603C34.0569 18.7903 34.2869 19.4902 34.1769 20.1902C34.0769 20.8602 33.6869 21.4303 33.0969 21.7803C34.2469 21.1403 34.5269 19.7603 33.8669 18.6803C33.5269 18.0403 32.8569 17.5303 31.9269 17.5303ZM31.9169 18.9303C31.5869 18.9303 31.1569 19.0902 30.5769 19.4102L22.5769 23.8403C22.6069 24.1503 22.7069 24.4703 22.8669 24.7703C23.0369 25.0703 23.2569 25.3203 23.5069 25.5103L32.3669 20.6003C32.6069 20.4703 32.7669 20.2403 32.8069 19.9703C32.8469 19.7003 32.7569 19.4203 32.5469 19.2103C32.3769 19.0203 32.1769 18.9303 31.9169 18.9303ZM26.5669 20.0603L23.6969 21.6503C23.6569 21.6703 23.6169 21.7003 23.5769 21.7203L26.5669 20.0603Z" fill="#00CFDE"/>
<path d="M31.9371 17.5498C31.2871 17.5498 30.687 17.7998 30.257 18.0198L26.567 20.0598L23.577 21.7198C22.867 22.1798 22.4971 23.0098 22.5871 23.8498L30.5871 19.4198C31.1771 19.0998 31.5971 18.9398 31.9271 18.9398C32.1871 18.9398 32.387 19.0298 32.567 19.2198C32.777 19.4398 32.867 19.7098 32.827 19.9898C32.787 20.2498 32.627 20.4798 32.377 20.6198L23.517 25.5298C23.927 25.8498 24.4171 26.0198 24.9171 26.0198C25.2671 26.0198 25.627 25.9298 25.957 25.7498L33.0571 21.8198C33.0771 21.8098 33.0871 21.7998 33.0971 21.7998C33.6771 21.4498 34.0771 20.8798 34.1771 20.2098C34.2871 19.5098 34.0571 18.8098 33.5571 18.2798C33.0571 17.7298 32.4871 17.5498 31.9371 17.5498Z" fill="#0045DE"/>
<path d="M31.9269 24.0498C31.4669 24.0498 30.9469 24.1698 30.3769 24.4698L30.2569 24.5398C30.6869 24.3198 31.297 24.0698 31.937 24.0698C32.477 24.0698 33.0469 24.2498 33.5569 24.7798C34.0569 25.3098 34.2869 26.0098 34.1769 26.7098C34.0769 27.3798 33.6869 27.9498 33.0969 28.2998C34.2469 27.6598 34.5269 26.2798 33.8669 25.1998C33.5169 24.5598 32.8569 24.0498 31.9269 24.0498ZM31.9169 25.4498C31.5869 25.4498 31.1569 25.6098 30.5769 25.9298L22.5769 30.3598C22.6069 30.6798 22.7069 30.9898 22.8669 31.2898C23.0369 31.5898 23.2569 31.8398 23.5069 32.0298L32.3669 27.1198C32.6069 26.9898 32.7669 26.7598 32.8069 26.4898C32.8469 26.2098 32.7569 25.9398 32.5469 25.7198C32.3769 25.5498 32.1769 25.4498 31.9169 25.4498ZM26.5569 26.5798L23.687 28.1698C23.647 28.1898 23.6069 28.2198 23.5669 28.2398L26.5569 26.5798Z" fill="#00CFDE"/>
<path d="M31.9371 24.0703C31.2971 24.0703 30.687 24.3203 30.257 24.5403L26.5571 26.5803L23.567 28.2403C22.857 28.7003 22.487 29.5303 22.577 30.3703L30.577 25.9403C31.167 25.6203 31.5871 25.4603 31.9171 25.4603C32.1771 25.4603 32.3771 25.5503 32.5571 25.7403C32.7671 25.9603 32.857 26.2303 32.817 26.5103C32.777 26.7703 32.6171 27.0003 32.3671 27.1403L23.507 32.0503C23.917 32.3703 24.4071 32.5403 24.9071 32.5403C25.2571 32.5403 25.617 32.4503 25.947 32.2703L33.0471 28.3403C33.0671 28.3303 33.0771 28.3203 33.0971 28.3203C33.6771 27.9703 34.0671 27.4003 34.1771 26.7303C34.2871 26.0303 34.0571 25.3303 33.5571 24.8003C33.0571 24.2503 32.4871 24.0703 31.9371 24.0703Z" fill="#0045DE"/>
</svg>
