<svg width="40" height="40" viewBox="0 0 40 40" fill="none" xmlns="http://www.w3.org/2000/svg">
<path d="M12.7971 31.2C12.4959 31.2 12.2505 31.42 12.2505 31.69C12.2505 32 12.4959 32.22 12.7971 32.22H28.3699C28.6711 32.22 28.9165 31.9999 28.9165 31.7299C28.9165 31.42 28.6711 31.2 28.3699 31.2H12.7971ZM28.3699 33.4799H12.7971C11.7262 33.4799 10.845 32.7 10.845 31.74C10.845 30.74 11.7151 29.96 12.7971 29.96H28.3699C29.4408 29.96 30.3109 30.74 30.3109 31.7C30.322 32.69 29.4519 33.4799 28.3699 33.4799Z" fill="#9654FF"/>
<path d="M23.3614 27.1602V30.3401C23.3614 30.7801 23.0491 31.1501 22.6587 31.1501C22.2682 31.1501 21.967 30.7901 21.967 30.3401V27.1602H23.3614Z" fill="#9654FF"/>
<path d="M31.0251 12.71H15.709C12.8309 12.71 10.4995 14.8 10.4995 17.38V22.69C10.4995 23.83 10.9792 24.87 11.7601 25.66H31.449C33.1334 25.66 34.5056 24.33 34.5056 22.7V13.9C33.5686 13.16 32.3526 12.71 31.0251 12.71ZM36.1677 16.66V22.7C36.1677 23.81 35.7326 24.83 35.0187 25.61C35.7773 24.83 36.2235 23.81 36.2235 22.69V17.38C36.2346 17.14 36.2123 16.9 36.1677 16.66Z" fill="#00CFDE"/>
<path d="M19.2006 27.1602V30.3401C19.2006 30.7801 18.8882 31.1501 18.4978 31.1501C18.1073 31.1501 17.8062 30.7901 17.8062 30.3401V27.1602H19.2006Z" fill="#9654FF"/>
<path d="M31.4379 7H9.72981C7.11948 7 5 8.99999 5 11.46V22.69C5 25.15 7.11948 27.15 9.72981 27.15H15.4748C13.9911 27.15 12.6636 26.57 11.7489 25.65H9.72981C8.04537 25.65 6.67329 24.32 6.67329 22.69V11.46C6.67329 9.82999 8.04537 8.5 9.72981 8.5H31.4379C33.1224 8.5 34.4944 9.82999 34.4944 11.46V13.89C35.3757 14.59 35.9781 15.56 36.1677 16.65V11.46C36.1677 9.00999 34.0482 7 31.4379 7ZM35.0187 25.61C34.104 26.56 32.7542 27.16 31.2371 27.16H31.4268C32.8769 27.16 34.1597 26.56 35.0187 25.61Z" fill="#9654FF"/>
<path d="M34.4941 13.9004V22.7004C34.4941 24.3304 33.1221 25.6604 31.4376 25.6604H11.7598C12.6745 26.5804 14.0019 27.1604 15.4856 27.1604H31.2479C32.7539 27.1604 34.1148 26.5604 35.0296 25.6104C35.7435 24.8304 36.1786 23.8104 36.1786 22.7004V16.6604C35.9778 15.5704 35.3754 14.6004 34.4941 13.9004Z" fill="#0045DE"/>
</svg>
